<svg width="1268" height="633" xmlns="http://www.w3.org/2000/svg" xmlns:xlink="http://www.w3.org/1999/xlink" xml:space="preserve" overflow="hidden"><defs><filter id="fx0" x="-10%" y="-10%" width="120%" height="120%" filterUnits="userSpaceOnUse" primitiveUnits="userSpaceOnUse"><feComponentTransfer color-interpolation-filters="sRGB"><feFuncR type="discrete" tableValues="0.498039 0.498039"/><feFuncG type="discrete" tableValues="0.498039 0.498039"/><feFuncB type="discrete" tableValues="0.498039 0.498039"/><feFuncA type="linear" slope="1" intercept="0"/></feComponentTransfer><feGaussianBlur stdDeviation="1.21968 1.21968"/></filter><filter id="fx1" x="-10%" y="-10%" width="120%" height="120%" filterUnits="userSpaceOnUse" primitiveUnits="userSpaceOnUse"><feComponentTransfer color-interpolation-filters="sRGB"><feFuncR type="discrete" tableValues="0.498039 0.498039"/><feFuncG type="discrete" tableValues="0.498039 0.498039"/><feFuncB type="discrete" tableValues="0.498039 0.498039"/><feFuncA type="linear" slope="1" intercept="0"/></feComponentTransfer><feGaussianBlur stdDeviation="1.21968 1.21968"/></filter><filter id="fx2" x="-10%" y="-10%" width="120%" height="120%" filterUnits="userSpaceOnUse" primitiveUnits="userSpaceOnUse"><feComponentTransfer color-interpolation-filters="sRGB"><feFuncR type="discrete" tableValues="0.498039 0.498039"/><feFuncG type="discrete" tableValues="0.498039 0.498039"/><feFuncB type="discrete" tableValues="0.498039 0.498039"/><feFuncA type="linear" slope="1" intercept="0"/></feComponentTransfer><feGaussianBlur stdDeviation="1.21968 1.21968"/></filter><filter id="fx3" x="-10%" y="-10%" width="120%" height="120%" filterUnits="userSpaceOnUse" primitiveUnits="userSpaceOnUse"><feComponentTransfer color-interpolation-filters="sRGB"><feFuncR type="discrete" tableValues="0.498039 0.498039"/><feFuncG type="discrete" tableValues="0.498039 0.498039"/><feFuncB type="discrete" tableValues="0.498039 0.498039"/><feFuncA type="linear" slope="1" intercept="0"/></feComponentTransfer><feGaussianBlur stdDeviation="1.21968 1.21968"/></filter><filter id="fx4" x="-10%" y="-10%" width="120%" height="120%" filterUnits="userSpaceOnUse" primitiveUnits="userSpaceOnUse"><feComponentTransfer color-interpolation-filters="sRGB"><feFuncR type="discrete" tableValues="0.498039 0.498039"/><feFuncG type="discrete" tableValues="0.498039 0.498039"/><feFuncB type="discrete" tableValues="0.498039 0.498039"/><feFuncA type="linear" slope="1" intercept="0"/></feComponentTransfer><feGaussianBlur stdDeviation="1.21968 1.21968"/></filter><clipPath id="clip5"><rect x="1" y="1" width="167" height="183"/></clipPath><clipPath id="clip6"><rect x="1" y="1" width="81" height="35"/></clipPath><clipPath id="clip7"><rect x="1" y="1" width="819" height="189"/></clipPath><clipPath id="clip8"><rect x="1" y="1" width="825" height="235"/></clipPath><clipPath id="clip9"><rect x="1" y="1" width="105" height="141"/></clipPath></defs><g transform="translate(-1148 -177)"><g clip-path="url(#clip5)" filter="url(#fx0)" transform="translate(1189 264)"><g><path d="M6.73255 6.89851 37.3693 6.89851 75.6349 121.09C79.2677 131.988 82.4565 142.927 85.2013 153.906 88.5112 141.393 91.6193 130.656 94.5255 121.695L132.549 6.89851 163.186 6.89851 100.701 177.52 69.338 177.52Z" stroke="#FFFFFF" stroke-width="3" stroke-linejoin="round" stroke-miterlimit="10" fill="#FF781B" fill-rule="evenodd"/></g></g><path d="M1188.1 263.261 1218.73 263.261 1257 377.453C1260.63 388.351 1263.82 399.29 1266.56 410.269 1269.87 397.756 1272.98 387.019 1275.89 378.058L1313.91 263.261 1344.55 263.261 1282.06 433.883 1250.7 433.883Z" stroke="#FFFFFF" stroke-width="3" stroke-linejoin="round" stroke-miterlimit="10" fill="#FF781B" fill-rule="evenodd"/><text fill="#000000" fill-opacity="0" font-family="Arial,Arial_MSFontService,sans-serif" font-size="170.621" x="1188.1" y="412.555">V</text><g clip-path="url(#clip6)" filter="url(#fx1)" transform="translate(1373 360)"><g><path d="M6.98132 6.56257 77.0946 6.56257 77.0946 31.0235 6.98132 31.0235Z" stroke="#FFFFFF" stroke-width="3" stroke-linejoin="round" stroke-miterlimit="10" fill="#FF781B" fill-rule="evenodd"/></g></g><path d="M1372.34 358.926 1442.46 358.926 1442.46 383.386 1372.34 383.386Z" stroke="#FFFFFF" stroke-width="3" stroke-linejoin="round" stroke-miterlimit="10" fill="#FF781B" fill-rule="evenodd"/><text fill="#000000" fill-opacity="0" font-family="Arial,Arial_MSFontService,sans-serif" font-size="24.4609" x="1372.34" y="380.329">-</text><g clip-path="url(#clip7)" filter="url(#fx2)" transform="translate(1483 259)"><g><path d="M695.563 76.4415C672.152 76.4415 660.446 91.0131 660.446 120.156 660.446 134.445 663.312 145.384 669.044 152.973 674.776 160.561 683.091 164.356 693.989 164.356 717.562 164.356 729.348 149.622 729.348 120.156 729.348 91.0131 718.087 76.4415 695.563 76.4415ZM222.563 76.4415C199.152 76.4415 187.446 91.0131 187.446 120.156 187.446 134.445 190.312 145.384 196.044 152.973 201.776 160.561 210.091 164.356 220.989 164.356 244.562 164.356 256.348 149.622 256.348 120.156 256.348 91.0131 245.087 76.4415 222.563 76.4415ZM694.958 55.8555C715.705 55.8555 731.488 61.3653 742.305 72.3848 753.123 83.4044 758.532 99.3282 758.532 120.156 758.532 140.419 752.901 156.283 741.639 167.746 730.378 179.21 714.575 184.941 694.231 184.941 674.533 184.941 659.114 179.129 647.973 167.504 636.833 155.879 631.263 140.096 631.263 120.156 631.263 99.8933 636.853 84.1107 648.034 72.8087 659.215 61.5066 674.856 55.8555 694.958 55.8555ZM607.923 55.8555C611.717 55.8555 614.865 56.3803 617.368 57.4298L617.368 80.3165C613.251 79.4285 609.013 78.9844 604.653 78.9844 595.612 78.9844 588.386 82.9604 582.977 90.9122 577.569 98.864 574.864 109.581 574.864 123.063L574.864 182.52 547.013 182.52 547.013 89.0352C547.013 75.9571 546.73 65.7449 546.165 58.3985L572.684 58.3985C573.492 68.086 573.895 77.4506 573.895 86.4923L574.38 86.4923C578.255 75.0287 582.735 67.0567 587.821 62.5762 592.907 58.0958 599.608 55.8555 607.923 55.8555ZM381.431 55.8555C395.235 55.8555 405.589 59.9324 412.491 68.086 419.393 76.2396 422.845 88.8334 422.845 105.867L422.845 182.52 394.872 182.52 394.872 113.133C394.872 100.539 392.914 91.4975 388.999 86.0079 385.084 80.5183 378.888 77.7735 370.411 77.7735 361.289 77.7735 354.124 81.2852 348.917 88.3087 343.71 95.3321 341.106 104.858 341.106 116.887L341.106 182.52 313.255 182.52 313.255 86.9766C313.255 77.3699 312.891 67.8438 312.165 58.3985L338.684 58.3985C339.572 70.5079 340.016 78.5001 340.016 82.3751L340.501 82.3751C345.264 73.0912 350.794 66.3503 357.091 62.1524 363.388 57.9545 371.501 55.8555 381.431 55.8555ZM221.958 55.8555C242.705 55.8555 258.488 61.3653 269.306 72.3848 280.123 83.4044 285.532 99.3282 285.532 120.156 285.532 140.419 279.901 156.283 268.639 167.746 257.378 179.21 241.575 184.941 221.231 184.941 201.533 184.941 186.114 179.129 174.974 167.504 163.833 155.879 158.263 140.096 158.263 120.156 158.263 99.8933 163.853 84.1107 175.034 72.8087 186.215 61.5066 201.856 55.8555 221.958 55.8555ZM472.786 28.3673 491.313 28.3673 491.313 58.3985 521.223 58.3985 521.223 78.6212 491.313 78.6212 491.313 145.586C491.313 157.857 496.52 163.992 506.934 163.992 511.859 163.992 517.147 163.468 522.798 162.418L522.798 181.066C513.595 183.488 504.311 184.699 494.946 184.699 485.259 184.699 477.61 181.934 471.999 176.404 466.388 170.874 463.583 162.943 463.583 152.609L463.583 78.6212 445.298 78.6212 445.298 58.3985 463.946 58.3985ZM78.3719 9.35555C94.2756 9.35555 107.414 12.8269 117.788 19.7696 128.162 26.7123 135.972 37.6915 141.22 52.7071L115.306 61.9102C112.561 52.3842 108.08 45.1589 101.864 40.2345 95.648 35.31 88.0191 32.8477 78.9774 32.8477 65.2535 32.8477 54.678 38.3575 47.2509 49.377 39.8238 60.3966 36.1102 76.0782 36.1102 96.4219 36.1102 116.604 39.9045 132.508 47.493 144.133 55.0816 155.758 65.4957 161.57 78.7352 161.57 87.6962 161.57 95.3856 158.805 101.804 153.275 108.222 147.745 112.964 139.854 116.032 129.602L142.067 139.773C130.765 169.885 109.614 184.941 78.6141 184.941 55.8485 184.941 38.1083 177.111 25.3934 161.449 12.6786 145.788 6.32117 124.112 6.32117 96.4219 6.32117 68.8933 12.5777 47.5001 25.0907 32.2423 37.6037 16.9845 55.3642 9.35555 78.3719 9.35555ZM787.255 6.4493 815.106 6.4493 815.106 182.52 787.255 182.52Z" stroke="#FFFFFF" stroke-width="3" stroke-linejoin="round" stroke-miterlimit="10" fill="#FF781B" fill-rule="evenodd"/></g></g><path d="M2170.93 327.804C2147.51 327.804 2135.81 342.376 2135.81 371.519 2135.81 385.808 2138.67 396.747 2144.41 404.336 2150.14 411.924 2158.45 415.719 2169.35 415.719 2192.92 415.719 2204.71 400.985 2204.71 371.519 2204.71 342.376 2193.45 327.804 2170.93 327.804ZM1697.93 327.804C1674.51 327.804 1662.81 342.376 1662.81 371.519 1662.81 385.808 1665.67 396.747 1671.41 404.336 1677.14 411.924 1685.45 415.719 1696.35 415.719 1719.92 415.719 1731.71 400.985 1731.71 371.519 1731.71 342.376 1720.45 327.804 1697.93 327.804ZM2170.32 307.219C2191.07 307.219 2206.85 312.728 2217.67 323.748 2228.49 334.767 2233.9 350.691 2233.9 371.519 2233.9 391.782 2228.26 407.646 2217 419.109 2205.74 430.573 2189.94 436.304 2169.59 436.304 2149.9 436.304 2134.48 430.492 2123.34 418.867 2112.2 407.242 2106.63 391.459 2106.63 371.519 2106.63 351.256 2112.22 335.474 2123.4 324.172 2134.58 312.87 2150.22 307.219 2170.32 307.219ZM2083.29 307.219C2087.08 307.219 2090.23 307.743 2092.73 308.793L2092.73 331.679C2088.61 330.791 2084.38 330.347 2080.02 330.347 2070.97 330.347 2063.75 334.323 2058.34 342.275 2052.93 350.227 2050.23 360.944 2050.23 374.426L2050.23 433.883 2022.38 433.883 2022.38 340.398C2022.38 327.32 2022.09 317.108 2021.53 309.761L2048.05 309.761C2048.85 319.449 2049.26 328.814 2049.26 337.855L2049.74 337.855C2053.62 326.392 2058.1 318.42 2063.18 313.939 2068.27 309.459 2074.97 307.219 2083.29 307.219ZM1856.79 307.219C1870.6 307.219 1880.95 311.295 1887.85 319.449 1894.76 327.603 1898.21 340.196 1898.21 357.23L1898.21 433.883 1870.23 433.883 1870.23 364.496C1870.23 351.902 1868.28 342.86 1864.36 337.371 1860.45 331.881 1854.25 329.136 1845.77 329.136 1836.65 329.136 1829.49 332.648 1824.28 339.672 1819.07 346.695 1816.47 356.221 1816.47 368.25L1816.47 433.883 1788.62 433.883 1788.62 338.34C1788.62 328.733 1788.25 319.207 1787.53 309.761L1814.05 309.761C1814.94 321.871 1815.38 329.863 1815.38 333.738L1815.86 333.738C1820.63 324.454 1826.16 317.713 1832.45 313.515 1838.75 309.317 1846.86 307.219 1856.79 307.219ZM1697.32 307.219C1718.07 307.219 1733.85 312.728 1744.67 323.748 1755.49 334.767 1760.9 350.691 1760.9 371.519 1760.9 391.782 1755.26 407.646 1744 419.109 1732.74 430.573 1716.94 436.304 1696.59 436.304 1676.9 436.304 1661.48 430.492 1650.34 418.867 1639.2 407.242 1633.63 391.459 1633.63 371.519 1633.63 351.256 1639.22 335.474 1650.4 324.172 1661.58 312.87 1677.22 307.219 1697.32 307.219ZM1948.15 279.73 1966.68 279.73 1966.68 309.761 1996.59 309.761 1996.59 329.984 1966.68 329.984 1966.68 396.949C1966.68 409.22 1971.88 415.355 1982.3 415.355 1987.22 415.355 1992.51 414.83 1998.16 413.781L1998.16 432.429C1988.96 434.851 1979.67 436.062 1970.31 436.062 1960.62 436.062 1952.97 433.297 1947.36 427.767 1941.75 422.237 1938.95 414.306 1938.95 403.972L1938.95 329.984 1920.66 329.984 1920.66 309.761 1939.31 309.761ZM1553.73 260.719C1569.64 260.719 1582.78 264.19 1593.15 271.133 1603.52 278.075 1611.34 289.054 1616.58 304.07L1590.67 313.273C1587.92 303.747 1583.44 296.522 1577.23 291.597 1571.01 286.673 1563.38 284.211 1554.34 284.211 1540.62 284.211 1530.04 289.72 1522.61 300.74 1515.19 311.76 1511.47 327.441 1511.47 347.785 1511.47 367.967 1515.27 383.871 1522.86 395.496 1530.44 407.121 1540.86 412.933 1554.1 412.933 1563.06 412.933 1570.75 410.168 1577.17 404.638 1583.58 399.108 1588.33 391.217 1591.4 380.965L1617.43 391.136C1606.13 421.248 1584.98 436.304 1553.98 436.304 1531.21 436.304 1513.47 428.474 1500.76 412.812 1488.04 397.151 1481.68 375.475 1481.68 347.785 1481.68 320.256 1487.94 298.863 1500.45 283.605 1512.97 268.347 1530.73 260.719 1553.73 260.719ZM2262.62 257.812 2290.47 257.812 2290.47 433.883 2262.62 433.883Z" stroke="#FFFFFF" stroke-width="3" stroke-linejoin="round" stroke-miterlimit="10" fill="#FF781B" fill-rule="evenodd"/><text fill="#000000" fill-opacity="0" font-family="Arial,Arial_MSFontService,sans-serif" font-size="178.492" x="1481.68" y="413.993">Control </text><g clip-path="url(#clip8)" filter="url(#fx3)" transform="translate(1322 556)"><g><path d="M219.894 121.852 206.695 122.336C194.827 122.901 186.29 125 181.083 128.633 175.876 132.266 173.273 137.957 173.273 145.707 173.273 158.785 179.489 165.324 191.921 165.324 200.559 165.324 207.381 162.317 212.386 156.303 217.391 150.288 219.894 142.559 219.894 133.113ZM561.96 76.4415C551.062 76.4415 542.787 80.1954 537.136 87.7032 531.485 95.211 528.659 106.109 528.659 120.398 528.659 134.688 531.404 145.586 536.894 153.094 542.383 160.602 550.577 164.356 561.476 164.356 582.223 164.356 592.597 149.582 592.597 120.035 592.597 90.9727 582.385 76.4415 561.96 76.4415ZM764.214 75.1094C756.06 75.1094 749.562 78.0157 744.718 83.8282 739.874 89.6407 737.25 97.6732 736.847 107.926L790.855 107.926C790.047 96.9467 787.545 88.7325 783.347 83.2833 779.149 77.8341 772.771 75.1094 764.214 75.1094ZM765.183 55.8555C782.862 55.8555 796.385 61.6479 805.749 73.2325 815.114 84.8171 819.796 101.185 819.796 122.336L819.796 125.727 736.605 125.727C737.008 138.401 739.814 148.149 745.021 154.971 750.228 161.792 757.352 165.203 766.394 165.203 772.529 165.203 777.999 163.669 782.802 160.602 787.605 157.534 791.945 152.367 795.82 145.102L817.737 155.637C812.974 163.306 808.211 169.119 803.448 173.074 798.685 177.03 793.135 179.997 786.798 181.975 780.461 183.953 772.933 184.941 764.214 184.941 746.05 184.941 732.043 179.23 722.195 167.807 712.346 156.384 707.421 140.339 707.421 119.672 707.421 98.8438 712.588 83.0007 722.921 72.1427 733.254 61.2846 747.342 55.8555 765.183 55.8555ZM569.952 55.8555C586.663 55.8555 599.459 61.3653 608.339 72.3848 617.219 83.4044 621.659 99.2071 621.659 119.793 621.659 140.137 616.917 156.081 607.431 167.625 597.945 179.169 584.766 184.941 567.894 184.941 558.206 184.941 550.254 183.085 544.038 179.371 537.822 175.658 532.857 170.249 529.144 163.145L528.538 163.145C528.7 166.374 528.841 169.563 528.962 172.711 529.083 175.859 529.144 179.048 529.144 182.277L529.144 230.231 501.171 230.231 501.171 86.0079C501.171 77.6121 500.848 68.4089 500.202 58.3985L527.085 58.3985C528.135 66.7943 528.659 73.8178 528.659 79.4688L529.144 79.4688C536.894 63.7266 550.497 55.8555 569.952 55.8555ZM349.136 55.8555C368.592 55.8555 380.863 64.6954 385.948 82.3751L386.796 82.3751C391.156 73.2527 396.463 66.5521 402.72 62.2735 408.976 57.9949 417.07 55.8555 426.999 55.8555 440.32 55.8555 450.29 59.892 456.909 67.9649 463.529 76.0378 466.839 88.6719 466.839 105.867L466.839 182.52 438.866 182.52 438.866 113.133C438.866 100.539 437.03 91.4975 433.357 86.0079 429.683 80.5183 423.851 77.7735 415.859 77.7735 407.382 77.7735 400.702 81.1843 395.818 88.0059 390.933 94.8275 388.491 104.212 388.491 116.16L388.491 182.52 360.519 182.52 360.519 113.133C360.519 100.297 358.723 91.1947 355.13 85.8262 351.538 80.4578 345.826 77.7735 337.995 77.7735 329.438 77.7735 322.657 81.2449 317.652 88.1876 312.646 95.1303 310.144 104.697 310.144 116.887L310.144 182.52 282.292 182.52 282.292 86.9766C282.292 77.3699 281.929 67.8438 281.202 58.3985L307.722 58.3985C308.61 70.5079 309.054 78.5001 309.054 82.3751L309.538 82.3751C314.221 72.849 319.629 66.0476 325.765 61.9708 331.9 57.8939 339.691 55.8555 349.136 55.8555ZM199.671 55.8555C216.221 55.8555 228.35 59.7709 236.06 67.6016 243.769 75.4324 247.624 87.5821 247.624 104.051L247.624 182.52 220.741 182.52 219.773 162.902C215.656 170.975 210.691 176.667 204.878 179.977 199.066 183.287 191.921 184.941 183.445 184.941 170.689 184.941 160.941 181.632 154.2 175.012 147.46 168.392 144.089 159.189 144.089 147.402 144.089 134.486 148.691 124.596 157.894 117.734 167.097 110.872 180.659 107.159 198.581 106.594L219.773 105.867 219.773 101.992C219.773 92.3855 218.219 85.4226 215.111 81.1036 212.003 76.7846 206.735 74.6251 199.308 74.6251 192.769 74.6251 187.945 75.8562 184.837 78.3184 181.729 80.7807 179.61 84.5951 178.48 89.7618L151.597 85.5235C154.019 74.948 159.085 67.3594 166.794 62.7579 174.504 58.1563 185.463 55.8555 199.671 55.8555ZM66.2454 9.35555C82.3912 9.35555 95.0051 12.5645 104.087 18.9825 113.169 25.4005 119.446 35.4714 122.917 49.1954L95.1868 54.1602C91.554 38.5795 81.8261 30.7891 66.0032 30.7891 57.8495 30.7891 51.5729 32.7872 47.1731 36.7833 42.7734 40.7794 40.5735 46.3295 40.5735 53.4337 40.5735 58.3581 41.5624 62.4148 43.5403 65.6036 45.5182 68.7924 48.485 71.5574 52.4407 73.8985 56.3964 76.2397 64.0253 79.1459 75.3274 82.6173 88.567 86.7344 98.0123 90.3471 103.663 93.4551 109.314 96.5632 113.795 100.014 117.105 103.809 120.415 107.603 122.917 112.003 124.613 117.008 126.308 122.013 127.156 127.826 127.156 134.445 127.156 150.753 121.969 163.245 111.595 171.924 101.221 180.602 86.2258 184.941 66.6086 184.941 49.3326 184.941 35.7499 181.188 25.8606 173.68 15.9713 166.172 9.53313 154.829 6.54616 139.652L33.9133 134.93C37.8691 153.417 49.2519 162.66 68.0618 162.66 88.567 162.66 98.8196 153.82 98.8196 136.141 98.8196 131.055 97.8105 126.897 95.7922 123.668 93.774 120.439 90.9889 117.734 87.4368 115.555 83.8847 113.375 79.707 111.538 74.9036 110.045 70.1002 108.552 64.9537 106.997 59.4641 105.383 46.2245 101.589 36.6379 97.6329 30.7044 93.5157 24.7708 89.3985 20.2096 84.2318 17.0208 78.0157 13.832 71.7996 12.2376 64.0496 12.2376 54.7657 12.2376 40.4766 17.0006 29.336 26.5266 21.3438 36.0527 13.3516 49.2922 9.35555 66.2454 9.35555ZM650.292 6.4493 678.144 6.4493 678.144 182.52 650.292 182.52Z" stroke="#FFFFFF" stroke-width="3" stroke-linejoin="round" stroke-miterlimit="10" fill="#FF781B" fill-rule="evenodd"/></g></g><path d="M1534.26 670.215 1521.06 670.699C1509.19 671.264 1500.65 673.363 1495.45 676.996 1490.24 680.629 1487.64 686.32 1487.64 694.07 1487.64 707.148 1493.85 713.687 1506.28 713.687 1514.92 713.687 1521.74 710.68 1526.75 704.666 1531.75 698.651 1534.26 690.922 1534.26 681.476ZM1876.32 624.804C1865.42 624.804 1857.15 628.558 1851.5 636.066 1845.85 643.574 1843.02 654.472 1843.02 668.761 1843.02 683.051 1845.77 693.949 1851.26 701.457 1856.75 708.965 1864.94 712.719 1875.84 712.719 1896.59 712.719 1906.96 697.945 1906.96 668.398 1906.96 639.336 1896.75 624.804 1876.32 624.804ZM2078.58 623.472C2070.42 623.472 2063.92 626.379 2059.08 632.191 2054.24 638.004 2051.61 646.036 2051.21 656.289L2105.22 656.289C2104.41 645.31 2101.91 637.095 2097.71 631.646 2093.51 626.197 2087.13 623.472 2078.58 623.472ZM2079.55 604.219C2097.23 604.219 2110.75 610.011 2120.11 621.595 2129.48 633.18 2134.16 649.548 2134.16 670.699L2134.16 674.09 2050.97 674.09C2051.37 686.764 2054.18 696.512 2059.38 703.334 2064.59 710.155 2071.71 713.566 2080.76 713.566 2086.89 713.566 2092.36 712.032 2097.16 708.965 2101.97 705.897 2106.31 700.73 2110.18 693.465L2132.1 704C2127.34 711.669 2122.57 717.482 2117.81 721.437 2113.05 725.393 2107.5 728.36 2101.16 730.338 2094.82 732.315 2087.3 733.304 2078.58 733.304 2060.41 733.304 2046.41 727.593 2036.56 716.17 2026.71 704.747 2021.78 688.702 2021.78 668.035 2021.78 647.207 2026.95 631.364 2037.28 620.506 2047.62 609.648 2061.7 604.219 2079.55 604.219ZM1884.32 604.219C1901.03 604.219 1913.82 609.728 1922.7 620.748 1931.58 631.767 1936.02 647.57 1936.02 668.156 1936.02 688.5 1931.28 704.444 1921.79 715.988 1912.31 727.532 1899.13 733.304 1882.26 733.304 1872.57 733.304 1864.62 731.448 1858.4 727.734 1852.19 724.021 1847.22 718.612 1843.51 711.508L1842.9 711.508C1843.06 714.737 1843.2 717.926 1843.32 721.074 1843.45 724.222 1843.51 727.411 1843.51 730.64L1843.51 778.594 1815.53 778.594 1815.53 634.371C1815.53 625.975 1815.21 616.772 1814.57 606.761L1841.45 606.761C1842.5 615.157 1843.02 622.181 1843.02 627.832L1843.51 627.832C1851.26 612.09 1864.86 604.219 1884.32 604.219ZM1663.5 604.219C1682.95 604.219 1695.23 613.058 1700.31 630.738L1701.16 630.738C1705.52 621.616 1710.83 614.915 1717.08 610.636 1723.34 606.358 1731.43 604.219 1741.36 604.219 1754.68 604.219 1764.65 608.255 1771.27 616.328 1777.89 624.401 1781.2 637.035 1781.2 654.23L1781.2 730.883 1753.23 730.883 1753.23 661.496C1753.23 648.902 1751.39 639.86 1747.72 634.371 1744.05 628.881 1738.21 626.136 1730.22 626.136 1721.74 626.136 1715.06 629.547 1710.18 636.369 1705.3 643.191 1702.85 652.575 1702.85 664.523L1702.85 730.883 1674.88 730.883 1674.88 661.496C1674.88 648.66 1673.09 639.558 1669.49 634.189 1665.9 628.821 1660.19 626.136 1652.36 626.136 1643.8 626.136 1637.02 629.608 1632.01 636.551 1627.01 643.493 1624.51 653.06 1624.51 665.25L1624.51 730.883 1596.66 730.883 1596.66 635.34C1596.66 625.733 1596.29 616.207 1595.57 606.761L1622.08 606.761C1622.97 618.871 1623.42 626.863 1623.42 630.738L1623.9 630.738C1628.58 621.212 1633.99 614.411 1640.13 610.334 1646.26 606.257 1654.05 604.219 1663.5 604.219ZM1514.03 604.219C1530.58 604.219 1542.71 608.134 1550.42 615.965 1558.13 623.795 1561.99 635.945 1561.99 652.414L1561.99 730.883 1535.1 730.883 1534.14 711.265C1530.02 719.338 1525.05 725.03 1519.24 728.34 1513.43 731.649 1506.28 733.304 1497.81 733.304 1485.05 733.304 1475.3 729.995 1468.56 723.375 1461.82 716.755 1458.45 707.552 1458.45 695.765 1458.45 682.849 1463.05 672.959 1472.26 666.097 1481.46 659.235 1495.02 655.522 1512.94 654.957L1534.14 654.23 1534.14 650.355C1534.14 640.748 1532.58 633.786 1529.47 629.467 1526.37 625.148 1521.1 622.988 1513.67 622.988 1507.13 622.988 1502.31 624.219 1499.2 626.681 1496.09 629.144 1493.97 632.958 1492.84 638.125L1465.96 633.886C1468.38 623.311 1473.45 615.722 1481.16 611.121 1488.87 606.519 1499.83 604.219 1514.03 604.219ZM1380.61 557.719C1396.75 557.719 1409.37 560.927 1418.45 567.345 1427.53 573.763 1433.81 583.834 1437.28 597.558L1409.55 602.523C1405.92 586.943 1396.19 579.152 1380.37 579.152 1372.21 579.152 1365.94 581.15 1361.54 585.146 1357.14 589.142 1354.94 594.693 1354.94 601.797 1354.94 606.721 1355.93 610.778 1357.9 613.967 1359.88 617.155 1362.85 619.92 1366.8 622.261 1370.76 624.603 1378.39 627.509 1389.69 630.98 1402.93 635.097 1412.38 638.71 1418.03 641.818 1423.68 644.926 1428.16 648.377 1431.47 652.172 1434.78 655.966 1437.28 660.366 1438.98 665.371 1440.67 670.376 1441.52 676.189 1441.52 682.808 1441.52 699.116 1436.33 711.608 1425.96 720.287 1415.58 728.965 1400.59 733.304 1380.97 733.304 1363.7 733.304 1350.11 729.551 1340.22 722.043 1330.33 714.535 1323.9 703.192 1320.91 688.015L1348.28 683.293C1352.23 701.78 1363.61 711.023 1382.42 711.023 1402.93 711.023 1413.18 702.183 1413.18 684.504 1413.18 679.418 1412.17 675.26 1410.16 672.031 1408.14 668.802 1405.35 666.097 1401.8 663.918 1398.25 661.738 1394.07 659.901 1389.27 658.408 1384.46 656.914 1379.32 655.36 1373.83 653.746 1360.59 649.952 1351 645.996 1345.07 641.879 1339.13 637.761 1334.57 632.595 1331.38 626.379 1328.19 620.163 1326.6 612.413 1326.6 603.129 1326.6 588.84 1331.36 577.699 1340.89 569.707 1350.42 561.715 1363.66 557.719 1380.61 557.719ZM1964.66 554.812 1992.51 554.812 1992.51 730.883 1964.66 730.883Z" stroke="#FFFFFF" stroke-width="3" stroke-linejoin="round" stroke-miterlimit="10" fill="#FF781B" fill-rule="evenodd"/><text fill="#000000" fill-opacity="0" font-family="Arial,Arial_MSFontService,sans-serif" font-size="223.781" x="1320.91" y="750.621">Sample</text><g clip-path="url(#clip9)" filter="url(#fx4)" transform="translate(2149 605)"><g><path d="M54.2415 6.85554C67.0774 6.85554 76.9465 9.21687 83.8489 13.9395 90.7512 18.6622 95.0904 25.9076 96.8664 35.6758L72.6477 38.2188C71.7597 33.4558 69.802 30.1055 66.7747 28.168 63.7473 26.2305 59.6503 25.2618 54.4836 25.2618 43.1008 25.2618 37.4094 30.267 37.4094 40.2774 37.4094 43.5066 38.1158 46.1706 39.5286 48.2696 40.9413 50.3686 42.9999 52.1648 45.7043 53.6583 48.4088 55.1518 54.5644 57.2709 64.1711 60.0157 74.7467 63.0027 82.2545 66.0098 86.6946 69.0372 91.1347 72.0645 94.5657 75.879 96.9875 80.4805 99.4094 85.0821 100.62 90.8542 100.62 97.7969 100.62 109.745 96.5637 119.089 88.4504 125.83 80.3372 132.571 68.9745 135.941 54.3625 135.941 39.1855 135.941 28.0448 133.56 20.9407 128.797 13.8365 124.034 9.15422 116.365 6.8938 105.789L30.8704 102.035C32.0006 107.606 34.4023 111.602 38.0754 114.023 41.7486 116.445 47.0162 117.656 53.8782 117.656 60.0943 117.656 65.1197 116.324 68.9543 113.66 72.789 110.996 74.7063 106.677 74.7063 100.703 74.7063 97.0704 73.8586 94.0632 72.1633 91.6817 70.468 89.3002 67.9452 87.2416 64.595 85.5059 61.2447 83.7702 54.7258 81.6107 45.0383 79.0274 36.1581 76.6863 29.5585 74.0424 25.2395 71.0958 20.9205 68.1492 17.5904 64.4356 15.2493 59.9551 12.9081 55.4747 11.7375 49.9649 11.7375 43.4258 11.7375 31.8816 15.3502 22.9005 22.5754 16.4825 29.8007 10.0645 40.356 6.85554 54.2415 6.85554Z" stroke="#FFFFFF" stroke-width="3" stroke-linejoin="round" stroke-miterlimit="10" fill="#FF781B" fill-rule="evenodd"/></g></g><path d="M2195.6 604.219C2208.44 604.219 2218.31 606.58 2225.21 611.302 2232.11 616.025 2236.45 623.271 2238.23 633.039L2214.01 635.582C2213.12 630.819 2211.16 627.469 2208.14 625.531 2205.11 623.594 2201.01 622.625 2195.85 622.625 2184.46 622.625 2178.77 627.63 2178.77 637.64 2178.77 640.87 2179.48 643.534 2180.89 645.633 2182.3 647.732 2184.36 649.528 2187.07 651.021 2189.77 652.515 2195.93 654.634 2205.53 657.379 2216.11 660.366 2223.62 663.373 2228.06 666.4 2232.5 669.427 2235.93 673.242 2238.35 677.844 2240.77 682.445 2241.98 688.217 2241.98 695.16 2241.98 707.108 2237.93 716.452 2229.81 723.193 2221.7 729.934 2210.34 733.304 2195.73 733.304 2180.55 733.304 2169.41 730.923 2162.3 726.16 2155.2 721.397 2150.52 713.728 2148.26 703.152L2172.23 699.398C2173.36 704.969 2175.77 708.965 2179.44 711.386 2183.11 713.808 2188.38 715.019 2195.24 715.019 2201.46 715.019 2206.48 713.687 2210.32 711.023 2214.15 708.359 2216.07 704.04 2216.07 698.066 2216.07 694.433 2215.22 691.426 2213.53 689.045 2211.83 686.663 2209.31 684.605 2205.96 682.869 2202.61 681.133 2196.09 678.974 2186.4 676.39 2177.52 674.049 2170.92 671.405 2166.6 668.459 2162.28 665.512 2158.95 661.799 2156.61 657.318 2154.27 652.838 2153.1 647.328 2153.1 640.789 2153.1 629.245 2156.71 620.263 2163.94 613.845 2171.16 607.427 2181.72 604.219 2195.6 604.219Z" stroke="#FFFFFF" stroke-width="3" stroke-linejoin="round" stroke-miterlimit="10" fill="#FF781B" fill-rule="evenodd"/><text fill="#000000" fill-opacity="0" font-family="Arial,Arial_MSFontService,sans-serif" font-size="129.086" x="2148.26" y="717.169">s</text></g></svg>