<?xml version="1.0" encoding="utf-8"?>
<!-- Generator: Adobe Illustrator 22.0.0, SVG Export Plug-In . SVG Version: 6.00 Build 0)  -->
<svg version="1.0" xmlns="http://www.w3.org/2000/svg" xmlns:xlink="http://www.w3.org/1999/xlink" x="0px" y="0px"
	 viewBox="-4 -40 218 318" style="enable-background:new 0 0 138 138;" xml:space="preserve">
<style type="text/css">
	.st0{fill:#F08300;stroke:#F08300;stroke-miterlimit:10;}
	.st1{fill-rule:evenodd;clip-rule:evenodd;fill:#F08300;stroke:#F08300;stroke-miterlimit:10;}
</style>
<g id="图层_5">
</g>
<g id="图层_2">
	<g>
		<polyline class="st0" points="204.2,30.8 204.2,30.9 204.2,30.8 		"/>
		<path class="st0" d="M204.2,30.9l0-0.1L204.2,30.9 M104.7,236.1c-0.1,0-0.2-0.1-0.3-0.1c-6.3-2.3-12.3-4.9-17.8-7.7
			c-1.2-0.6-2.4-1.2-3.6-1.9c-14.8-7.9-26.8-17.4-36.6-28c-1.3-1.3-2.5-2.7-3.6-4.1C18,165.5,8.7,129.9,6.1,99.5
			C2.9,62.4,9.4,33,9.4,33l0-0.1c0,0,19.1-27.6,93.8-27.6c0.5,0,1,0,1.5,0h0.1c0.5,0,1,0,1.4,0c74.7,0,93.8,27.6,93.8,27.6l0,0.1
			c0,0,6.5,29.2,3.4,66.1c-2.6,30.3-11.7,65.9-36.3,94.9c-1.2,1.4-2.4,2.7-3.6,4.1c-9.8,10.6-21.8,20.2-36.6,28.2
			c-1.2,0.6-2.4,1.3-3.6,1.9c-5.7,2.9-11.7,5.5-18.2,7.8C104.9,236,104.8,236,104.7,236.1L104.7,236.1 M103.3,1
			C25.4,1,5.4,29.8,5.4,29.8l0,0.1c0,0-10.3,46.4,0.7,97.1c5.5,25.4,16.4,51.9,36.6,74.2c1.2,1.3,2.4,2.6,3.6,3.9
			c10,10.2,22,19.4,36.6,27.1c1.2,0.6,2.4,1.3,3.6,1.9c1.3,0.7,2.7,1.3,4.1,2c4.5,2.1,9.2,4,14.1,5.8h0.1c4.9-1.8,9.6-3.7,14.1-5.8
			c1.4-0.7,2.8-1.3,4.2-2c1.2-0.6,2.4-1.2,3.6-1.9c14.6-7.7,26.7-16.9,36.6-27.2c1.2-1.3,2.5-2.6,3.6-3.9
			c20.3-22.4,31.1-49.1,36.6-74.6c10.8-50.5,0.6-96.6,0.6-96.6l0-0.1c0,0-19.9-28.8-97.8-28.8c-0.5,0-1,0-1.5,0h-0.1
			C104.3,1,103.8,1,103.3,1"/>
		<polyline class="st0" points="204.2,30.8 204.2,30.9 204.2,30.8 		"/>
		<path class="st1" d="M42.5,50.4c8-13.5,15.6-17.8,15.6-17.8s-7.3,9.5-11.5,17.8H42.5z"/>
		<path class="st1" d="M44.7,57.9c-0.2,0.1,10.2,10,10.2,10l-2-10.7l10.5-6.9H51.4c0,0,0.1-3.8,0.7-6.1c0.8-2.7,3.2-6.6,3.2-6.6
			s-2.4,6.4-1.3,11.1h16.3l-14.6,9.3l3.7,17.4L45.7,61.9c0,0-0.5,0.3-1.8,3c-1.2,2.6-1.9,5.3-1.9,5.3C42.1,69.8,44.8,57.9,44.7,57.9
			z"/>
		<path class="st1" d="M43.8,57.2c-2.8,8.9-4.2,23.6-4.2,23.6h-9.9L14.2,44.6h8.6l11.5,28.3c0,0,2.8-12.1,6.1-18.8L43.8,57.2z"/>
		<path class="st1" d="M113.6,49.4h7v18.9c0,2.1,0.3,3.7,0.8,4.6c0.8,1.7,2.6,2.6,5.4,2.6c2.8,0,4.6-0.9,5.4-2.6
			c0.5-1,0.8-2.5,0.8-4.6V49.4h7v18.9c0,3.3-0.5,5.8-1.6,7.6c-2,3.3-5.9,5-11.5,5c-5.7,0-9.5-1.7-11.5-5c-1.1-1.8-1.6-4.4-1.6-7.6
			V49.4z"/>
		<path class="st1" d="M147.9,70.6c0.2,1.4,0.6,2.5,1.2,3.2c1.1,1.3,3,1.9,5.7,1.9c1.6,0,2.9-0.2,3.9-0.5c1.9-0.6,2.9-1.8,2.9-3.6
			c0-1-0.5-1.8-1.4-2.4c-0.9-0.5-2.4-1-4.5-1.5l-3.5-0.7c-3.4-0.7-5.8-1.5-7.1-2.4c-2.2-1.4-3.3-3.7-3.3-6.7c0-2.8,1.1-5.1,3.2-6.9
			c2.1-1.8,5.3-2.8,9.4-2.8c3.4,0,6.4,0.9,8.8,2.6c2.4,1.7,3.7,4.2,3.8,7.5h-6.6c-0.1-1.9-1-3.2-2.6-4c-1.1-0.5-2.4-0.8-4-0.8
			c-1.8,0-3.2,0.3-4.2,1c-1.1,0.7-1.6,1.6-1.6,2.8c0,1.1,0.5,1.9,1.6,2.5c0.7,0.4,2.1,0.8,4.3,1.3l5.6,1.3c2.5,0.6,4.3,1.3,5.6,2.2
			c2,1.5,2.9,3.6,2.9,6.3c0,2.8-1.1,5.2-3.4,7.1c-2.3,1.9-5.5,2.8-9.7,2.8c-4.3,0-7.6-0.9-10.1-2.8c-2.4-1.9-3.7-4.4-3.7-7.6H147.9z
			"/>
		<polygon class="st1" points="194.7,48.8 194.7,54.2 184.9,54.2 184.9,80.5 178,80.5 178,54.2 168.2,54.2 168.2,48.8 		"/>
		<path class="st1" d="M106.7,49.6c1.2,0.5,2.3,1.2,3.2,2.1c0.7,0.8,1.3,1.6,1.7,2.6c0.4,0.9,0.6,2,0.6,3.2c0,1.4-0.4,2.9-1.2,4.3
			c-0.8,1.4-2.1,2.4-3.9,3c1.5,0.6,2.6,1.4,3.2,2.4c0.6,1,1,2.6,1,4.7v2c0,1.4,0.1,3.3,0.2,3.8c0.2,0.8,0.6,1.6,1.2,2v0.8h-7.5
			c-0.2-0.7-0.4-1.2-0.4-1.6c-0.2-0.9-0.3-2.9-0.3-3.8l0-2.8c0-1.9-0.4-3.2-1.2-3.9c-0.7-0.6-2.1-1-4.1-1l-5.2,0v-5h5.9
			c1.5,0,2.7-0.2,3.5-0.5c1.4-0.6,2-1.7,2-3.4c0-1.8-0.7-3.1-2-3.7c-0.7-0.4-1.9-0.5-3.3-0.5h-6.1v-5.3h7.5
			C103.7,48.9,105.5,49.1,106.7,49.6z"/>
		<polygon class="st1" points="92.3,48.8 92.3,54.2 82.5,54.2 82.5,80.5 75.7,80.5 75.7,54.2 65.8,54.2 74.3,48.8 		"/>
	</g>
	<path class="st0" d="M71.4,163.2l-18.5-21.2l18.5,13.5v-54H14.2c4,56.6,30,90.2,57.2,109.4V163.2z"/>
	<g>
		<polygon class="st0" points="133.5,101.6 76.9,101.6 76.9,159.5 103.4,178.9 133.5,154.3 		"/>
		<path class="st0" d="M133.5,166.6l-30,33.2l-26.6-30.4v45.2c9.8,6.2,19.5,10.6,28.3,13.6c10.6-3.7,20-8.2,28.3-13.4V166.6z"/>
	</g>
	<g>
		<path class="st0" d="M138.4,211.5v0.2c0.1-0.1,0.2-0.1,0.3-0.2H138.4z"/>
		<path class="st0" d="M139,101.6v48.2l37.4-30.7L139,160.6v50.6c56.5-39.6,57.1-109.6,57.1-109.6H139z"/>
	</g>
</g>
</svg>
