<?xml version="1.0" encoding="utf-8"?>
<!-- Generator: Adobe Illustrator 22.0.0, SVG Export Plug-In . SVG Version: 6.00 Build 0)  -->
<svg version="1.1" id="图层_1" xmlns="http://www.w3.org/2000/svg" xmlns:xlink="http://www.w3.org/1999/xlink" x="0px" y="0px"
	 viewBox="0 0 200 200" style="enable-background:new 0 0 200 200;" xml:space="preserve">
<style type="text/css">
	.st0{fill:#2C1F15;}
</style>
<path class="st0" d="M154,99.4l-31.5,63.4l1.9,24.2l20.4-13.1l31.5-63.4L154,99.4z M165.1,77l-7.4,15l22.4,11.1l7.4-14.9L165.1,77z
	 M31.3,175c-3.5,0-6.3-2.8-6.3-6.3V31.3c0-3.5,2.8-6.3,6.3-6.3h106.1c3.5,0,6.3,2.8,6.3,6.3v50c0,3.5,2.8,6.3,6.3,6.3
	s6.3-2.8,6.3-6.3V25c0-6.9-5.6-12.5-12.5-12.5H25c-6.9,0-12.5,5.6-12.5,12.5v150c0,6.9,5.6,12.5,12.5,12.5h81.4
	c3.5,0,6.3-2.8,6.3-6.3s-2.8-6.3-6.3-6.3H31.3V175z"/>
<path class="st0" d="M121.7,49.8h-75c-3.5,0-6.3,2.8-6.3,6.3s2.8,6.3,6.3,6.3h75c3.5,0,6.3-2.8,6.3-6.3S125.2,49.8,121.7,49.8z
	 M121.7,87.3h-75c-3.5,0-6.3,2.8-6.3,6.3s2.8,6.3,6.3,6.3h75c3.5,0,6.3-2.8,6.3-6.3C128,90.1,125.2,87.3,121.7,87.3z M84.2,124.8
	H46.7c-3.5,0-6.3,2.8-6.3,6.3s2.8,6.3,6.3,6.3h37.5c3.5,0,6.3-2.8,6.3-6.3S87.7,124.8,84.2,124.8z"/>
</svg>
