<svg width="9" height="9" viewBox="0 0 9 9" fill="none" xmlns="http://www.w3.org/2000/svg">
<path d="M5.5569 4.5155L8.7375 7.69548C8.80722 7.76533 8.86251 7.84822 8.90019 7.93943C8.93788 8.03064 8.95723 8.12838 8.95715 8.22707C8.95706 8.32576 8.93754 8.42346 8.89969 8.51461C8.86184 8.60575 8.80642 8.68855 8.73657 8.75827C8.66673 8.82799 8.58383 8.88327 8.49262 8.92096C8.40141 8.95865 8.30368 8.978 8.20499 8.97791C8.1063 8.97783 8.00859 8.9583 7.91745 8.92046C7.82631 8.88261 7.74351 8.82718 7.67379 8.75734L4.49318 5.57673L1.2915 8.77841C1.14962 8.92029 0.957191 9 0.756543 9C0.555895 9 0.363466 8.92029 0.221586 8.77841C0.079707 8.63653 0 8.44411 0 8.24346C0 8.04281 0.079707 7.85038 0.221586 7.7085L3.42389 4.5062L0.243282 1.32559C0.10871 1.18362 0.0348722 0.99473 0.0374883 0.799133C0.0401044 0.603536 0.118968 0.416685 0.257289 0.278365C0.395609 0.140044 0.58246 0.0611803 0.778057 0.0585642C0.973654 0.0559481 1.16255 0.129786 1.30452 0.264358L4.48512 3.44496L7.7085 0.221586C7.85038 0.079707 8.04281 -2.11417e-09 8.24346 0C8.4441 2.11417e-09 8.63653 0.079707 8.77841 0.221586C8.92029 0.363466 9 0.555895 9 0.756543C9 0.957191 8.92029 1.14962 8.77841 1.2915L5.5569 4.5155Z" fill="#A8A8A8"/>
</svg>
