<svg width="11" height="11" viewBox="0 0 11 11" fill="none" xmlns="http://www.w3.org/2000/svg">
<path d="M5.15796 7.01844L5.08725 6.94773L5.15796 7.01844L10.4602 1.71604C10.5053 1.67235 10.5413 1.62015 10.566 1.56248C10.5909 1.50453 10.604 1.4422 10.6046 1.37913C10.6051 1.31606 10.5931 1.25351 10.5692 1.19513C10.5454 1.13676 10.5101 1.08372 10.4655 1.03912C10.4209 0.994525 10.3678 0.959255 10.3095 0.935372C10.2511 0.911488 10.1885 0.89947 10.1255 0.900018C10.0624 0.900566 10.0001 0.913669 9.94213 0.938564C9.88446 0.963337 9.83228 0.999291 9.78859 1.04435L4.48617 6.34665C4.39708 6.43573 4.34703 6.55656 4.34703 6.68255C4.34703 6.80853 4.39708 6.92936 4.48616 7.01844C4.57525 7.10753 4.69608 7.15758 4.82206 7.15758C4.94805 7.15758 5.06887 7.10753 5.15796 7.01844ZM9.78912 4.66873C9.70004 4.75781 9.65 4.87863 9.65 5.00461V9.12961C9.65 9.26885 9.59469 9.40238 9.49623 9.50084C9.39777 9.5993 9.26424 9.65461 9.125 9.65461H2.375C2.23576 9.65461 2.10223 9.5993 2.00377 9.50084C1.90531 9.40238 1.85 9.26885 1.85 9.12961V2.37961C1.85 2.24037 1.90531 2.10683 2.00377 2.00838C2.10223 1.90992 2.23576 1.85461 2.375 1.85461H6.375C6.50098 1.85461 6.6218 1.80456 6.71088 1.71548C6.79996 1.6264 6.85 1.50559 6.85 1.37961C6.85 1.25363 6.79996 1.13281 6.71088 1.04373C6.6218 0.954653 6.50098 0.904608 6.375 0.904608H2.375C1.5604 0.904608 0.9 1.565 0.9 2.37961V9.12961C0.9 9.94421 1.5604 10.6046 2.375 10.6046H9.125C9.9396 10.6046 10.6 9.94421 10.6 9.12961V5.00461C10.6 4.87863 10.55 4.75781 10.4609 4.66873C10.3718 4.57965 10.251 4.52961 10.125 4.52961C9.99902 4.52961 9.8782 4.57965 9.78912 4.66873Z" fill="#A8A8A8" stroke="#A8A8A8" stroke-width="0.2"/>
</svg>
