<?xml version="1.0" standalone="no"?><!DOCTYPE svg PUBLIC "-//W3C//DTD SVG 1.1//EN" "http://www.w3.org/Graphics/SVG/1.1/DTD/svg11.dtd"><svg t="1729493213669" class="icon" viewBox="0 0 1024 1024" version="1.1" xmlns="http://www.w3.org/2000/svg" p-id="8610" xmlns:xlink="http://www.w3.org/1999/xlink" width="64" height="64"><path d="M331.434667 610.255238c21.333333 13.336381 44.373333 24.210286 68.705523 32.231619L219.428571 853.333333h377.344v73.142857H219.428571a73.142857 73.142857 0 0 1-55.539809-120.734476zM499.248762 97.52381c134.656 0 243.809524 109.153524 243.809524 243.809523s-109.153524 243.809524-243.809524 243.809524-243.809524-109.153524-243.809524-243.809524 109.153524-243.809524 243.809524-243.809523z m0 73.142857a170.666667 170.666667 0 1 0 0 341.333333 170.666667 170.666667 0 0 0 0-341.333333z m316.952381 487.619047v97.52381h97.523809v73.142857h-97.523809v97.523809h-73.142857v-97.523809h-97.52381v-73.142857h97.52381v-97.52381h73.142857z" p-id="8611" fill="#201b1b"></path></svg>