<svg width="161" height="161" viewBox="0 0 161 161" fill="none" xmlns="http://www.w3.org/2000/svg">
<path d="M80.5234 130.858C75.6703 130.858 71.6997 134.716 71.6997 139.566V139.676C71.6997 140.668 72.4717 141.439 73.4643 141.439C74.4569 141.439 75.2294 140.668 75.2294 139.676V139.566C75.2294 136.7 77.5456 134.275 80.5234 134.275C83.5019 134.275 85.8182 136.7 85.8182 139.566V139.676C85.8182 140.668 86.5908 141.439 87.5835 141.439C88.5759 141.439 89.3478 140.668 89.3478 139.676V139.566C89.3478 134.826 85.3768 130.858 80.5234 130.858ZM158.948 75.0263L128.284 46.8093C127.292 45.8175 125.858 45.3763 124.424 45.3763H36.5127C35.0787 45.3763 33.7558 45.9269 32.7623 46.8093L1.87871 75.0262C0.66455 76.1282 0.00317367 77.5614 0.00317383 79.2142V148.324C0.00317383 155.268 5.62825 161 12.6881 161H148.139C155.088 161 160.824 155.268 160.824 148.324V79.2142C160.824 77.6717 160.051 76.1285 158.948 75.0263ZM103.577 74.5852C101.591 74.5852 99.9364 76.2388 99.9364 78.3329C99.9364 88.6939 91.1128 97.4018 80.6337 97.4018C70.1552 97.4018 61.331 88.6939 61.331 78.3329C61.331 76.349 59.676 74.5852 57.691 74.5852H14.6733L37.6156 53.6429H123.431L146.154 74.5852H103.577ZM152.33 82.0804V148.324C152.33 150.749 150.455 152.513 148.139 152.513H12.6877C10.2611 152.513 8.27529 150.639 8.27529 148.324V82.0802H54.1615C55.0436 87.8123 57.8013 93.2128 62.2131 97.2913C67.2871 102.141 73.7952 104.676 80.6337 104.676C87.4727 104.676 93.981 102.031 99.0542 97.2913C103.356 93.1026 106.225 87.8122 107.107 82.0802L152.33 82.0804Z" fill="#B1B1B1"/>
<path d="M38.6678 31.5984L24.6713 18.3236C23.1723 16.8981 23.1131 14.5275 24.5394 13.0288C25.9668 11.5306 28.339 11.4709 29.8381 12.8971L43.8224 26.1711C45.3222 27.5942 45.3837 29.9615 43.9603 31.4605C42.537 32.9585 40.1672 33.0207 38.6678 31.5984ZM77.222 25.7352C76.8659 25.3969 76.5801 24.9918 76.3811 24.5429C76.182 24.0941 76.0736 23.6103 76.0621 23.1195L75.5571 3.84468C75.5035 1.77604 77.1385 0.0550359 79.2085 0.00131691C81.2788 -0.0530161 83.0012 1.58065 83.0548 3.64945L83.5485 22.9243C83.5672 23.6631 83.3664 24.391 82.9715 25.0159C82.5766 25.6408 82.0052 26.1348 81.3295 26.4354C80.6539 26.7362 79.9043 26.8302 79.1752 26.7056C78.4462 26.581 77.7705 26.2433 77.2334 25.7352M113.515 30.9095C112.794 30.2264 112.375 29.2852 112.349 28.2931C112.324 27.3012 112.693 26.3398 113.377 25.6201L126.661 11.6232C128.088 10.125 130.46 10.0653 131.96 11.4915C133.459 12.9167 133.518 15.2871 132.092 16.7862L118.808 30.7717C118.124 31.4916 117.183 31.9106 116.19 31.9366C115.197 31.9621 114.235 31.5926 113.515 30.9095Z" fill="#B1B1B1"/>
<circle cx="69" cy="118" r="5" fill="#B1B1B1"/>
<circle cx="93" cy="118" r="5" fill="#B1B1B1"/>
</svg>
