<svg width="26" height="25" viewBox="0 0 26 25" fill="#201b1b"   xmlns="http://www.w3.org/2000/svg">
<path fill-rule="evenodd" clip-rule="evenodd" d="M25.3976 10.2993C25.5535 10.4374 25.568 10.6757 25.4299 10.8316L19.6963 17.3049C19.6278 17.3823 19.5083 17.3859 19.4353 17.3128L17.1026 14.9801C16.9553 14.8328 16.9553 14.5941 17.1026 14.4469C17.2498 14.2996 17.4885 14.2996 17.6358 14.4469L19.4299 16.241C19.4878 16.2989 19.5826 16.296 19.6369 16.2347L24.8654 10.3316C25.0035 10.1757 25.2417 10.1612 25.3976 10.2993Z" />
<path fill-rule="evenodd" clip-rule="evenodd" d="M19.1838 9.46647C19.2872 9.44125 19.4753 9.40858 19.6869 9.39896C19.907 9.38895 20.1218 9.40547 20.2858 9.46012C20.5051 9.53324 20.8953 9.67355 21.2694 9.81895C21.4547 9.89096 21.6267 9.96069 21.7693 10.022C21.9606 10.1042 22.1962 10.0394 22.3033 9.86088C22.4105 9.68232 22.3502 9.45448 22.16 9.36981C21.975 9.28749 21.755 9.19859 21.5426 9.11607C21.1592 8.96708 20.7573 8.82242 20.5242 8.74472C20.2357 8.64855 19.9164 8.63365 19.6526 8.64564C19.3852 8.65779 19.1435 8.69922 18.9939 8.73663L18.9864 8.73851L18.9789 8.74069C18.4374 8.89997 17.6429 9.15747 16.9084 9.41278C16.1829 9.66501 15.4867 9.92507 15.1593 10.0888C14.8211 10.2579 14.5882 10.4447 14.4355 10.627C14.2918 10.7986 14.1968 10.9951 14.1968 11.1801V16.7054L14.2143 16.7609C14.6961 18.2867 15.6962 19.4297 16.732 20.2348C17.7659 21.0383 18.8559 21.5217 19.5604 21.723L19.6773 21.7564L19.7917 21.7152C23.6619 20.3219 25.0954 17.8789 25.3133 16.7168L25.3197 16.6824V14.008C25.3197 13.7997 25.1509 13.6309 24.9427 13.6309C24.7344 13.6309 24.5656 13.7997 24.5656 14.008V16.6103C24.3844 17.4736 23.1873 19.6532 19.6524 20.9633C19.0319 20.768 18.0923 20.337 17.1948 19.6394C16.2545 18.9086 15.3805 17.9013 14.9509 16.5882V11.2059C14.9558 11.1945 14.9712 11.162 15.0138 11.1111C15.0873 11.0232 15.2315 10.8958 15.4965 10.7632C15.7725 10.6253 16.4208 10.3807 17.156 10.1251C17.8788 9.87381 18.6572 9.6216 19.1838 9.46647Z"/>
<path fill-rule="evenodd" clip-rule="evenodd" d="M1 3.69531C1 2.20673 2.19574 1 3.67076 1H17.5587C19.0338 1 20.2295 2.20673 20.2295 3.69531V6.57522C20.2295 6.87023 19.9904 7.10938 19.6954 7.10938C19.4004 7.10938 19.1612 6.87023 19.1612 6.57522V3.69531C19.1612 2.80216 18.4438 2.07812 17.5587 2.07812H3.67076C2.78575 2.07812 2.06831 2.80216 2.06831 3.69531V21.3047C2.06831 22.1978 2.78575 22.9219 3.67076 22.9219H19.1563C19.454 22.9219 19.6954 23.1632 19.6954 23.4609C19.6954 23.7587 19.454 24 19.1563 24H3.67076C2.19574 24 1 22.7933 1 21.3047V3.69531Z"/>
<rect x="5.14746" y="7.03296" width="10.5574" height="1.13115" rx="0.565574"/>
<rect x="5.14746" y="10.8032" width="6.78689" height="1.13115" rx="0.565574"/>
<rect x="5.14746" y="14.5737" width="6.78689" height="1.13115" rx="0.565574"/>
<rect x="5.14746" y="18.3445" width="7.91803" height="1.13115" rx="0.565574"/>
</svg>
