<svg width="60" height="60" viewBox="0 0 60 60" fill="none" xmlns="http://www.w3.org/2000/svg">
<path d="M44.0854 17.9881C45.0651 17.0245 46.6405 17.0376 47.6041 18.0174C48.5676 18.9971 48.5545 20.5724 47.5748 21.536L27.2611 41.5146C26.2813 42.4782 24.706 42.4651 23.7424 41.4853C22.7788 40.5056 22.792 38.9303 23.7717 37.9667L44.0854 17.9881Z" fill="#01AE54"/>
<path d="M12.7282 31.5838C11.7403 30.6286 11.7138 29.0534 12.669 28.0655C13.6242 27.0776 15.1994 27.0512 16.1873 28.0064L26.7837 38.2522C27.7716 39.2074 27.7981 40.7826 26.8429 41.7705C25.8877 42.7584 24.3125 42.7849 23.3246 41.8297L12.7282 31.5838Z" fill="#01AE54"/>
<path fill-rule="evenodd" clip-rule="evenodd" d="M30 54.6961C43.6393 54.6961 54.6961 43.6393 54.6961 30C54.6961 16.3607 43.6393 5.30387 30 5.30387C16.3607 5.30387 5.30387 16.3607 5.30387 30C5.30387 43.6393 16.3607 54.6961 30 54.6961ZM30 60C46.5685 60 60 46.5685 60 30C60 13.4315 46.5685 0 30 0C13.4315 0 0 13.4315 0 30C0 46.5685 13.4315 60 30 60Z" fill="#01AE54"/>
</svg>
