<svg width="30" height="22" viewBox="0 0 30 22" fill="none" xmlns="http://www.w3.org/2000/svg">
<path d="M12.53 16.0113C12.3387 16.1767 12.033 16.1726 11.8475 16.0019L11.5103 15.6918C11.3252 15.5215 11.3298 15.2497 11.5207 15.0845L14.6175 12.4048C14.8094 12.2387 15.1163 12.2435 15.3015 12.4155L18.1828 15.09C18.3672 15.2611 18.3611 15.5329 18.1692 15.6973L17.8198 15.9967C17.6277 16.1613 17.3221 16.1559 17.1375 15.9846L15.2652 14.2475C15.08 14.0757 14.7732 14.0709 14.5813 14.2369L12.53 16.0113Z" fill="#ED6102"/>
<path d="M22.2198 19.6572H20.457C20.1906 19.6572 19.9746 19.4648 19.9746 19.2274V18.7943C19.9746 18.557 20.1906 18.3646 20.457 18.3646H22.2198C25.7127 18.3646 28.5528 15.8343 28.5528 12.7224C28.5528 9.69448 25.8941 7.21915 22.5027 7.08666L22.3267 7.08017C22.118 7.07248 21.9386 6.94603 21.8822 6.76689L21.8353 6.6181C20.8487 3.48355 17.6025 1.2926 13.9427 1.2926C9.4523 1.2926 5.77802 4.54671 5.74538 8.54407L5.74416 8.70596C5.74273 8.89721 5.59962 9.06459 5.39306 9.11663L5.21581 9.16128C2.99601 9.72033 1.44723 11.5461 1.44723 13.6014C1.44723 16.1445 3.77222 18.2159 6.62677 18.2159H8.77045C9.03685 18.2159 9.25281 18.4083 9.25281 18.6457V19.0788C9.25281 19.3161 9.03685 19.5085 8.77045 19.5085H6.6304C2.97425 19.5085 0 16.8587 0 13.6014C0 12.2894 0.471527 11.0452 1.36743 10.0079C2.06149 9.20318 2.9836 8.56908 4.02239 8.17013C4.19723 8.10298 4.3189 7.95658 4.33636 7.78767C4.54322 5.7866 5.52272 3.93117 7.14182 2.49794C8.96264 0.88866 11.3747 0 13.9427 0C16.09 0 18.1211 0.613984 19.8186 1.77732C21.246 2.75549 22.3455 4.08354 22.976 5.57546C23.0419 5.73158 23.1986 5.84335 23.3838 5.86813C25.0764 6.09458 26.6332 6.81053 27.8346 7.92362C29.231 9.21945 30 10.9257 30 12.7224C30 14.574 29.1911 16.3158 27.7222 17.6246C26.2532 18.9365 24.2982 19.6572 22.2198 19.6572Z" fill="#ED6102"/>
<path d="M14.1204 13.737C14.1204 13.4997 14.3364 13.3073 14.6028 13.3073H15.0889C15.3553 13.3073 15.5713 13.4997 15.5713 13.737V21.5703C15.5713 21.8076 15.3553 22 15.0889 22H14.6028C14.3364 22 14.1204 21.8076 14.1204 21.5703V13.737Z" fill="#ED6102"/>
</svg>
