<svg width="195" height="167" viewBox="0 0 195 167" fill="none" xmlns="http://www.w3.org/2000/svg">
<path fill-rule="evenodd" clip-rule="evenodd" d="M98.3823 61.6419C126.176 14.9555 152.731 0 152.731 0C152.731 0 127.479 32.7976 112.731 61.6419H98.3823Z" fill="#838383"/>
<path fill-rule="evenodd" clip-rule="evenodd" d="M106.135 87.7461C105.588 88.2481 141.744 122.468 141.744 122.468L134.79 85.2988L171.261 61.3699H129.286C129.286 61.3699 129.664 48.2969 131.891 40.3276C134.559 30.8523 142.899 17.5701 142.899 17.5701C142.899 17.5701 134.496 39.7629 138.277 55.8897C138.34 56.1617 195 55.8897 195 55.8897L144.055 88.1853L157.059 148.321L109.559 101.614C109.559 101.614 107.899 102.618 103.403 112.114C99.0757 121.276 96.9538 130.5 96.9538 130.5C96.9538 128.785 106.366 87.5369 106.135 87.7461Z" fill="#838383"/>
<path fill-rule="evenodd" clip-rule="evenodd" d="M102.815 85.2989C92.8991 116.172 88.0462 167 88.0462 167H53.7395L0 41.4991H30L70.084 139.62C70.084 139.62 79.7059 97.8281 91.4286 74.3803L102.815 85.2989Z" fill="#838383"/>
</svg>
