<svg width="117" height="136" viewBox="0 0 117 136" fill="none" xmlns="http://www.w3.org/2000/svg">
<path d="M58.4765 132.246C58.4201 132.246 58.3637 132.19 58.3073 132.19C54.7539 130.896 51.3698 129.433 48.2676 127.858C47.5908 127.521 46.914 127.183 46.2371 126.79C37.8896 122.346 31.1213 117.002 25.5939 111.039C24.8606 110.308 24.1838 109.521 23.5634 108.733C9.57556 92.5328 4.33013 72.5074 2.86367 55.4071C1.05879 34.5381 4.72495 18.0003 4.72495 18.0003V17.944C4.72495 17.944 15.4978 2.41879 57.6304 2.41879C57.9124 2.41879 58.1945 2.41879 58.4765 2.41879H58.5329C58.8149 2.41879 59.0969 2.41879 59.3225 2.41879C101.455 2.41879 112.228 17.944 112.228 17.944V18.0003C112.228 18.0003 115.894 34.4256 114.146 55.1821C112.679 72.2262 107.547 92.2515 93.6716 108.564C92.9948 109.352 92.3179 110.083 91.6411 110.871C86.1137 116.833 79.3454 122.233 70.9978 126.733C70.321 127.071 69.6441 127.465 68.9673 127.802C65.7524 129.433 62.3682 130.896 58.7021 132.19C58.5893 132.19 58.5329 132.19 58.4765 132.246ZM57.6868 0C13.7493 0 2.46885 16.2003 2.46885 16.2003V16.2565C2.46885 16.2565 -3.3406 42.3569 2.86367 70.8762C5.9658 85.1639 12.1137 100.07 23.507 112.614C24.1838 113.346 24.8606 114.077 25.5374 114.808C31.1777 120.546 37.946 125.721 46.1807 130.052C46.8576 130.39 47.5344 130.783 48.2112 131.121C48.9445 131.515 49.7341 131.852 50.5237 132.246C53.0618 133.427 55.7127 134.496 58.4765 135.508H58.5329C61.2966 134.496 63.9475 133.427 66.4856 132.246C67.2753 131.852 68.0649 131.515 68.8545 131.121C69.5313 130.783 70.2082 130.446 70.885 130.052C79.1198 125.721 85.9445 120.546 91.5283 114.752C92.2051 114.021 92.9384 113.289 93.5588 112.558C105.008 99.9579 111.1 84.9389 114.202 70.5949C120.294 42.1882 114.54 16.2565 114.54 16.2565V16.2003C114.54 16.2003 103.316 0 59.3789 0C59.0969 0 58.8149 0 58.5329 0H58.4765C58.2509 0 57.9688 0 57.6868 0Z" fill="#FF7415"/>
<path fill-rule="evenodd" clip-rule="evenodd" d="M27.1731 26.5503C32.0237 18.3939 36.6487 15.8064 36.6487 15.8064C36.6487 15.8064 32.2493 21.544 29.7112 26.5503H27.1731Z" fill="#FF7415"/>
<path fill-rule="evenodd" clip-rule="evenodd" d="M28.5268 31.0503C28.414 31.1628 34.7311 37.1254 34.7311 37.1254L33.5466 30.6566L39.8637 26.494H32.5314C32.5314 26.494 32.5878 24.244 32.9826 22.8377C33.4338 21.2064 34.9003 18.9001 34.9003 18.9001C34.9003 18.9001 33.4338 22.7815 34.1106 25.594H43.9811L35.1259 31.2191L37.382 41.6818L29.0908 33.4691C29.0908 33.4691 28.8088 33.6379 28.0192 35.3254C27.2859 36.9004 26.8911 38.5317 26.8911 38.5317C26.9475 38.1942 28.5832 31.0503 28.5268 31.0503Z" fill="#FF7415"/>
<path fill-rule="evenodd" clip-rule="evenodd" d="M27.9628 30.657C26.2143 36.0008 25.3683 44.8884 25.3683 44.8884H19.3897L10.0833 23.0068H15.2723L22.2662 40.1071C22.2662 40.1071 23.9582 32.8507 25.9887 28.7444L27.9628 30.657Z" fill="#FF7415"/>
<path fill-rule="evenodd" clip-rule="evenodd" d="M65.6394 25.8193H69.1928V35.4382C69.1928 36.507 69.3056 37.2945 69.5876 37.8008C69.9824 38.7008 70.9412 39.0946 72.3513 39.0946C73.7614 39.0946 74.6638 38.6445 75.115 37.8008C75.397 37.2945 75.5098 36.507 75.5098 35.4382V25.8193H79.0632V35.4382C79.0632 37.0695 78.7812 38.3633 78.2171 39.3196C77.2019 41.0071 75.2278 41.8508 72.3513 41.8508C69.4748 41.8508 67.5007 41.0071 66.4854 39.3196C65.9214 38.4195 65.6394 37.1258 65.6394 35.4382V25.8193Z" fill="#FF7415"/>
<path fill-rule="evenodd" clip-rule="evenodd" d="M83.068 36.5635C83.1808 37.2948 83.4064 37.801 83.6884 38.1948C84.2524 38.8698 85.2113 39.1511 86.6213 39.1511C87.4674 39.1511 88.0878 39.0386 88.5954 38.8698C89.5542 38.5323 90.0619 37.9135 90.0619 37.0698C90.0619 36.5635 89.8363 36.1698 89.3286 35.8885C88.821 35.6072 88.0878 35.3822 87.0725 35.1572L85.3241 34.7635C83.5756 34.3697 82.3911 33.976 81.7143 33.5822C80.5863 32.851 80.0222 31.7259 80.0222 30.1509C80.0222 28.7446 80.5863 27.5634 81.6579 26.6634C82.7295 25.7071 84.3088 25.2571 86.4521 25.2571C88.2006 25.2571 89.7235 25.7071 90.9643 26.6071C92.2052 27.5071 92.882 28.7446 92.9384 30.4322H89.6106C89.5542 29.4759 89.103 28.8009 88.3134 28.4071C87.7494 28.1259 87.0725 28.0134 86.2829 28.0134C85.3805 28.0134 84.6472 28.1821 84.1396 28.5196C83.632 28.8571 83.35 29.3634 83.35 29.9259C83.35 30.4884 83.632 30.8822 84.1396 31.1634C84.478 31.3322 85.2113 31.5572 86.2829 31.8384L89.1594 32.5134C90.4003 32.7947 91.3591 33.1885 92.0359 33.6385C93.0512 34.3697 93.5024 35.4385 93.5024 36.8448C93.5024 38.3073 92.9384 39.4886 91.7539 40.4448C90.5695 41.4011 88.9338 41.8511 86.8469 41.8511C84.7036 41.8511 82.9552 41.4011 81.7143 40.4448C80.4734 39.4886 79.853 38.1948 79.853 36.5635H83.068Z" fill="#FF7415"/>
<path fill-rule="evenodd" clip-rule="evenodd" d="M106.87 25.5378V28.2941H101.906V41.6256H98.4092V28.2941H93.3894V25.5378H106.87Z" fill="#FF7415"/>
<path fill-rule="evenodd" clip-rule="evenodd" d="M62.0861 25.9317C62.7066 26.1567 63.2706 26.5505 63.6654 27.0005C64.0038 27.3942 64.2858 27.8442 64.5114 28.2942C64.7371 28.7442 64.8499 29.3068 64.8499 29.9255C64.8499 30.6568 64.6242 31.388 64.2294 32.1193C63.8346 32.8506 63.1578 33.3006 62.2553 33.6381C63.045 33.9193 63.5526 34.3131 63.891 34.8756C64.2294 35.3819 64.3986 36.2256 64.3986 37.2944V38.3069C64.3986 39.0382 64.455 39.9382 64.5114 40.2194C64.6242 40.6132 64.7935 41.0632 65.1319 41.2319V41.6257H61.2965C61.1837 41.2882 61.1273 41.0069 61.0709 40.7819C60.9581 40.3319 60.9581 39.3194 60.9017 38.8132V37.3506C60.9017 36.3381 60.6761 35.7194 60.3377 35.3819C59.9428 35.0443 59.266 34.8756 58.2508 34.8756H55.5999V32.3443H58.5892C59.3788 32.3443 59.9428 32.2881 60.3377 32.1193C61.0145 31.838 61.3529 31.2193 61.3529 30.3755C61.3529 29.4193 61.0145 28.8005 60.3377 28.463C59.9428 28.2942 59.3788 28.1817 58.6456 28.1817H55.5435V25.4817H59.3788C60.5633 25.5379 61.4657 25.7067 62.0861 25.9317Z" fill="#FF7415"/>
<path fill-rule="evenodd" clip-rule="evenodd" d="M54.8103 25.5378V28.2941H49.7905V41.6256H46.2935V28.2941H41.2737L45.6167 25.5378H54.8103Z" fill="#FF7415"/>
<mask id="mask0_1432_1466" style="mask-type:luminance" maskUnits="userSpaceOnUse" x="4" y="55" width="109" height="76">
<path d="M58.6661 55.1821H4.57617C8.12953 116.327 58.6097 130.558 58.6097 130.558C58.6097 130.558 109.09 116.327 112.643 55.1821H58.6661Z" fill="white"/>
</mask>
<g mask="url(#mask0_1432_1466)">
<path d="M40.6173 47.7009H4.57617V130.559H40.6173V47.7009Z" fill="#D0D2D0"/>
<path d="M76.6583 47.7009H40.6172V130.559H76.6583V47.7009Z" fill="#FF7415"/>
<path d="M112.7 47.7009H76.6584V130.559H112.7V47.7009Z" fill="#53535C"/>
</g>
<path d="M33.3979 79.0888L58.8354 95.9641L96.2303 65.1948L58.779 107.214L33.3979 79.0888Z" fill="white"/>
<path d="M33.3979 79.0888L58.779 100.408L96.2303 65.1948L58.779 101.252L33.3979 79.0888Z" fill="#FF7415"/>
</svg>
