<svg width="20" height="20" viewBox="0 0 20 20" fill="none" xmlns="http://www.w3.org/2000/svg">
<path d="M7.24357 10.7143L0.714285 10.7143C0.524845 10.7143 0.343164 10.639 0.209209 10.5051C0.0752544 10.3711 -4.45395e-07 10.1894 -4.37114e-07 10C-4.28833e-07 9.81056 0.0752544 9.62888 0.209209 9.49492C0.343164 9.36097 0.524845 9.28571 0.714285 9.28571L7.24357 9.28571C7.56214 8.05571 8.67 7.14286 10 7.14286C11.33 7.14286 12.4379 8.05571 12.7564 9.28571L19.2657 9.28571C19.6714 9.28572 20 9.60572 20 10C20 10.3943 19.6714 10.7143 19.265 10.7143L12.7557 10.7143C12.4371 11.9443 11.3293 12.8571 9.99929 12.8571C8.66929 12.8571 7.56214 11.9443 7.24357 10.7143ZM14.3807 3.55214C14.3486 3.55643 14.3193 3.57143 14.2857 3.57143L0.714286 3.57143C0.524845 3.57143 0.343164 3.49617 0.209209 3.36222C0.0752547 3.22826 -1.3317e-07 3.04658 -1.2489e-07 2.85714C-1.16609e-07 2.6677 0.0752547 2.48602 0.209209 2.35207C0.343164 2.21811 0.524845 2.14286 0.714286 2.14286L14.2857 2.14286C14.3193 2.14286 14.3486 2.15786 14.3807 2.16214C14.5343 1.54548 14.8896 0.997816 15.39 0.606095C15.8904 0.214374 16.5074 0.0010529 17.1429 7.49338e-07C17.9006 7.82461e-07 18.6273 0.30102 19.1632 0.836839C19.699 1.37266 20 2.09938 20 2.85714C20 3.61491 19.699 4.34163 19.1632 4.87745C18.6273 5.41327 17.9006 5.71429 17.1429 5.71429C16.5073 5.71323 15.8904 5.49991 15.39 5.10819C14.8896 4.71647 14.5343 4.1688 14.3807 3.55214ZM18.5714 2.85714C18.5714 2.66949 18.5344 2.48369 18.4625 2.31034C18.3907 2.137 18.2854 1.9795 18.1527 1.84684C18.0199 1.71419 17.8624 1.60897 17.689 1.53721C17.5156 1.46544 17.3298 1.42853 17.1421 1.42857C16.9545 1.42862 16.7687 1.46563 16.5953 1.53748C16.422 1.60933 16.2645 1.71463 16.1318 1.84735C15.9992 1.98007 15.894 2.13762 15.8222 2.311C15.7504 2.48439 15.7135 2.67021 15.7136 2.85786C15.7137 3.23683 15.8643 3.60025 16.1323 3.86816C16.4004 4.13607 16.7639 4.28652 17.1429 4.28643C17.5218 4.28633 17.8852 4.1357 18.1532 3.86765C18.4211 3.59961 18.5715 3.23612 18.5714 2.85714ZM2.85714 20C2.09938 20 1.37266 19.699 0.836837 19.1632C0.301019 18.6273 -7.82461e-07 17.9006 -7.49338e-07 17.1429C-7.16215e-07 16.3851 0.301019 15.6584 0.836837 15.1226C1.37266 14.5867 2.09938 14.2857 2.85714 14.2857C3.49265 14.2868 4.10959 14.5001 4.61002 14.8918C5.11044 15.2835 5.46566 15.8312 5.61928 16.4479C5.65143 16.4436 5.68071 16.4286 5.71429 16.4286L19.2857 16.4286C19.4752 16.4286 19.6568 16.5038 19.7908 16.6378C19.9247 16.7717 20 16.9534 20 17.1429C20 17.3323 19.9247 17.514 19.7908 17.6479C19.6568 17.7819 19.4752 17.8571 19.2857 17.8571L5.71429 17.8571C5.68071 17.8571 5.65143 17.8421 5.61928 17.8379C5.46566 18.4545 5.11044 19.0022 4.61002 19.3939C4.10959 19.7856 3.49265 19.9989 2.85714 20ZM4.28571 17.1429C4.28567 16.9552 4.24866 16.7694 4.17681 16.5961C4.10495 16.4227 3.99966 16.2652 3.86694 16.1326C3.73422 15.9999 3.57667 15.8947 3.40328 15.8229C3.2299 15.7512 3.04408 15.7142 2.85643 15.7143C2.66878 15.7143 2.48298 15.7513 2.30963 15.8232C2.13628 15.895 1.97878 16.0003 1.84613 16.1331C1.71347 16.2658 1.60826 16.4233 1.53649 16.5967C1.46472 16.7701 1.42781 16.9559 1.42786 17.1436C1.42795 17.5225 1.57859 17.886 1.84663 18.1539C2.11468 18.4218 2.47817 18.5722 2.85714 18.5721C3.23612 18.572 3.59953 18.4214 3.86744 18.1534C4.13535 17.8853 4.28581 17.5218 4.28571 17.1429Z" fill="#CECECE"/>
</svg>
