<svg width="598" height="206" viewBox="0 0 598 206" fill="none" xmlns="http://www.w3.org/2000/svg">
<path fill-rule="evenodd" clip-rule="evenodd" d="M105.633 66.4349C135.475 16.1184 163.987 0 163.987 0C163.987 0 136.874 35.3478 121.039 66.4349H105.633Z" fill="#F4762C"/>
<path fill-rule="evenodd" clip-rule="evenodd" d="M113.956 94.5688C113.37 95.1099 152.19 131.991 152.19 131.991L144.724 91.9313L183.882 66.1418H138.814C138.814 66.1418 139.22 52.0523 141.611 43.4633C144.475 33.2513 153.43 18.9363 153.43 18.9363C153.43 18.9363 144.408 42.8547 148.468 60.2355C148.536 60.5286 209.371 60.2355 209.371 60.2355L154.671 95.0423L168.634 159.854L117.633 109.515C117.633 109.515 115.851 110.597 111.024 120.832C106.377 130.706 104.099 140.647 104.099 140.647C104.099 138.799 114.204 94.3434 113.956 94.5688Z" fill="#F4762C"/>
<path fill-rule="evenodd" clip-rule="evenodd" d="M110.392 91.9313C99.7456 125.205 94.535 179.985 94.535 179.985H57.7L0 44.7258H32.2109L75.2491 150.476C75.2491 150.476 85.58 105.435 98.1666 80.1637L110.392 91.9313Z" fill="#F4762C"/>
<path fill-rule="evenodd" clip-rule="evenodd" d="M343.11 62.1517H364.967V121.508C364.967 128.158 365.802 133.005 367.471 136.048C370.065 141.459 375.749 144.164 384.501 144.164C393.208 144.164 398.847 141.459 401.464 136.048C403.133 132.982 403.967 128.136 403.967 121.508V62.1517H425.825V121.508C425.825 131.765 424.133 139.768 420.727 145.494C414.389 155.977 402.321 161.229 384.501 161.229C366.681 161.229 354.568 155.977 348.207 145.494C344.801 139.768 343.11 131.788 343.11 121.508V62.1517Z" fill="#F4762C"/>
<path fill-rule="evenodd" clip-rule="evenodd" d="M450.93 128.677C451.585 133.118 452.87 136.454 454.765 138.641C458.261 142.654 464.239 144.66 472.698 144.66C477.773 144.66 481.878 144.141 485.059 143.082C491.059 141.053 494.059 137.288 494.059 131.788C494.059 128.564 492.57 126.084 489.593 124.326C486.615 122.613 481.946 121.08 475.562 119.772L464.667 117.45C453.953 115.151 446.554 112.671 442.472 109.988C435.547 105.502 432.073 98.4688 432.073 88.9105C432.073 80.1863 435.434 72.9499 442.133 67.1788C448.833 61.4078 458.667 58.5222 471.66 58.5222C482.51 58.5222 491.736 61.2499 499.382 66.7054C507.051 72.1158 511.089 80.0059 511.45 90.3532H490.788C490.405 84.492 487.72 80.3441 482.69 77.8643C479.329 76.2412 475.179 75.4296 470.194 75.4296C464.645 75.4296 460.224 76.4892 456.931 78.6082C453.615 80.7273 451.968 83.6805 451.968 87.4677C451.968 90.9394 453.592 93.5544 456.863 95.2677C458.961 96.4174 463.427 97.7474 470.262 99.3029L487.991 103.338C495.773 105.097 501.615 107.464 505.585 110.417C511.721 114.993 514.811 121.621 514.811 130.3C514.811 139.204 511.202 146.599 503.984 152.505C496.811 158.366 486.66 161.297 473.555 161.297C460.156 161.297 449.6 158.411 441.93 152.64C434.261 146.824 430.404 138.866 430.404 128.722H450.93V128.677Z" fill="#F4762C"/>
<path fill-rule="evenodd" clip-rule="evenodd" d="M598 60.2806V77.2331H567.233V159.719H545.578V77.2331H514.653V60.2806H598Z" fill="#F4762C"/>
<path fill-rule="evenodd" clip-rule="evenodd" d="M321.32 62.7603C325.222 64.2707 328.538 66.5025 331.222 69.4331C333.455 71.8453 335.215 74.5279 336.523 77.4811C337.831 80.4342 338.485 83.7706 338.485 87.5353C338.485 92.0665 337.245 96.5526 334.786 100.971C332.327 105.344 328.245 108.433 322.56 110.259C327.297 112.04 330.658 114.565 332.621 117.856C334.628 121.102 335.621 126.084 335.621 132.78V139.204C335.621 143.578 335.801 149.439 336.185 150.995C336.749 153.452 338.057 156.157 340.087 157.329V159.719H316.425C315.771 157.6 315.297 155.886 315.027 154.601C314.463 151.919 314.169 145.381 314.124 142.563L313.989 133.681C313.899 127.572 312.681 123.514 310.357 121.485C308.079 119.457 303.771 118.442 297.432 118.442H281.124V102.617H299.598C304.425 102.617 308.056 102.098 310.493 101.061C314.778 99.2353 316.921 95.6509 316.921 90.2856C316.921 84.492 314.846 80.592 310.718 78.6082C308.395 77.4811 304.899 76.9175 300.252 76.9175H281.169V60.3031H304.718C311.914 60.4158 317.463 61.2499 321.32 62.7603Z" fill="#F4762C"/>
<path fill-rule="evenodd" clip-rule="evenodd" d="M276.229 60.2806V77.2331H245.439V159.719H223.785V77.2331H192.86L219.589 60.2806H276.229Z" fill="#F4762C"/>
<path fill-rule="evenodd" clip-rule="evenodd" d="M578.082 190.558H598.023V194.142H578.082V190.558ZM118.806 190.558H138.746V194.142H118.806V190.558Z" fill="#9FA0A0"/>
<path fill-rule="evenodd" clip-rule="evenodd" d="M148.513 180.391H156.318V205.549H148.513V180.391ZM161.934 180.391H169.198L178.671 194.3V180.391H186.002V205.549H178.671L169.243 191.73V205.549H161.934V180.391ZM189.814 197.231L197.213 196.757C197.371 197.952 197.709 198.876 198.183 199.508C198.972 200.522 200.123 201.04 201.612 201.04C202.717 201.04 203.574 200.793 204.183 200.251C204.792 199.733 205.085 199.124 205.085 198.448C205.085 197.794 204.815 197.208 204.228 196.69C203.664 196.171 202.333 195.698 200.236 195.224C196.83 194.458 194.393 193.443 192.95 192.181C191.484 190.919 190.762 189.295 190.762 187.334C190.762 186.049 191.145 184.809 191.89 183.66C192.634 182.51 193.762 181.608 195.273 180.954C196.784 180.301 198.837 179.963 201.454 179.963C204.679 179.963 207.115 180.571 208.807 181.743C210.499 182.938 211.491 184.854 211.83 187.447L204.499 187.875C204.296 186.748 203.89 185.914 203.258 185.395C202.649 184.877 201.769 184.629 200.687 184.629C199.784 184.629 199.108 184.809 198.634 185.193C198.183 185.576 197.957 186.049 197.957 186.59C197.957 186.996 198.138 187.357 198.521 187.672C198.882 188.011 199.762 188.304 201.138 188.597C204.544 189.318 206.957 190.062 208.446 190.828C209.912 191.572 210.995 192.497 211.649 193.624C212.326 194.728 212.664 195.968 212.664 197.343C212.664 198.944 212.213 200.432 211.333 201.807C210.431 203.182 209.191 204.197 207.589 204.895C205.988 205.594 203.957 205.955 201.521 205.955C197.236 205.955 194.281 205.143 192.634 203.475C190.965 201.875 190.04 199.778 189.814 197.231ZM216.544 180.391H229.469C232.289 180.391 234.386 181.067 235.785 182.397C237.183 183.727 237.883 185.643 237.883 188.101C237.883 190.648 237.116 192.632 235.582 194.052C234.048 195.472 231.725 196.194 228.589 196.194H224.326V205.527H216.544V180.391ZM224.349 191.121H226.243C227.755 191.121 228.792 190.873 229.401 190.332C230.01 189.814 230.304 189.138 230.304 188.326C230.304 187.537 230.033 186.861 229.514 186.32C228.995 185.779 228.003 185.486 226.559 185.486H224.349V191.121ZM241.943 180.391H262.785V185.756H249.747V189.746H261.838V194.886H249.747V199.846H263.169V205.549H241.943V180.391ZM284.101 195.269L290.913 197.321C290.462 199.237 289.74 200.815 288.748 202.1C287.755 203.385 286.537 204.354 285.071 205.008C283.605 205.662 281.755 205.977 279.5 205.977C276.77 205.977 274.515 205.572 272.8 204.783C271.064 203.994 269.575 202.596 268.312 200.59C267.048 198.583 266.417 196.036 266.417 192.902C266.417 188.732 267.522 185.531 269.733 183.299C271.943 181.067 275.079 179.94 279.139 179.94C282.319 179.94 284.801 180.571 286.628 181.856C288.455 183.141 289.786 185.102 290.665 187.763L283.808 189.295C283.56 188.529 283.312 187.965 283.041 187.605C282.613 187.019 282.071 186.568 281.44 186.23C280.808 185.914 280.109 185.756 279.319 185.756C277.56 185.756 276.206 186.455 275.282 187.875C274.582 188.935 274.221 190.58 274.221 192.835C274.221 195.63 274.65 197.546 275.485 198.583C276.342 199.62 277.515 200.139 279.049 200.139C280.537 200.139 281.665 199.733 282.432 198.876C283.222 198.087 283.763 196.87 284.101 195.269ZM292.921 180.391H316.56V186.613H308.62V205.549H300.838V186.613H292.921V180.391ZM320.395 180.391H328.2V205.549H320.395V180.391ZM332.801 192.993C332.801 188.89 333.952 185.689 336.23 183.412C338.531 181.112 341.711 179.985 345.794 179.985C349.989 179.985 353.215 181.112 355.471 183.367C357.726 185.621 358.877 188.754 358.877 192.812C358.877 195.743 358.38 198.155 357.388 200.049C356.395 201.92 354.974 203.385 353.102 204.445C351.23 205.482 348.907 206.023 346.11 206.023C343.267 206.023 340.922 205.572 339.049 204.67C337.2 203.768 335.688 202.325 334.515 200.387C333.365 198.38 332.801 195.923 332.801 192.993ZM340.583 193.015C340.583 195.562 341.057 197.388 342.004 198.493C342.952 199.598 344.237 200.161 345.861 200.161C347.531 200.161 348.816 199.62 349.741 198.538C350.643 197.456 351.117 195.495 351.117 192.677C351.117 190.31 350.643 188.574 349.674 187.492C348.726 186.41 347.418 185.846 345.771 185.846C344.215 185.846 342.952 186.387 342.004 187.515C341.057 188.619 340.583 190.468 340.583 193.015ZM363.117 180.391H370.381L379.854 194.3V180.391H387.185V205.549H379.854L370.426 191.73V205.549H363.117V180.391ZM402.727 197.231L410.125 196.757C410.283 197.952 410.622 198.876 411.095 199.508C411.885 200.522 413.035 201.04 414.524 201.04C415.629 201.04 416.486 200.793 417.095 200.251C417.704 199.733 417.998 199.124 417.998 198.448C417.998 197.794 417.727 197.208 417.141 196.69C416.577 196.171 415.246 195.698 413.148 195.224C409.742 194.458 407.306 193.443 405.862 192.181C404.396 190.919 403.674 189.295 403.674 187.334C403.674 186.049 404.058 184.809 404.802 183.66C405.546 182.51 406.674 181.608 408.186 180.954C409.697 180.301 411.75 179.963 414.366 179.963C417.592 179.963 420.05 180.571 421.72 181.743C423.411 182.938 424.404 184.854 424.742 187.447L417.411 187.875C417.208 186.748 416.802 185.914 416.171 185.395C415.562 184.877 414.682 184.629 413.599 184.629C412.697 184.629 412.02 184.809 411.547 185.193C411.095 185.576 410.87 186.049 410.87 186.59C410.87 186.996 411.05 187.357 411.434 187.672C411.795 188.011 412.674 188.304 414.05 188.597C417.456 189.318 419.87 190.062 421.359 190.828C422.825 191.572 423.908 192.497 424.562 193.624C425.238 194.728 425.577 195.968 425.577 197.343C425.577 198.944 425.126 200.432 424.246 201.807C423.366 203.182 422.103 204.197 420.501 204.895C418.9 205.594 416.87 205.955 414.434 205.955C410.148 205.955 407.193 205.143 405.546 203.475C403.877 201.875 402.93 199.778 402.727 197.231ZM429.457 180.391H450.299V185.756H437.261V189.746H449.352V194.886H437.261V199.846H450.682V205.549H429.457V180.391ZM454.968 205.549V180.391H467.938C470.352 180.391 472.179 180.594 473.442 181.022C474.705 181.428 475.743 182.194 476.51 183.322C477.299 184.426 477.683 185.801 477.683 187.402C477.683 188.8 477.389 189.994 476.78 191.009C476.194 192.023 475.359 192.835 474.322 193.466C473.645 193.872 472.743 194.21 471.592 194.458C472.517 194.773 473.194 195.089 473.622 195.382C473.893 195.585 474.322 196.036 474.863 196.69C475.404 197.366 475.765 197.884 475.946 198.245L479.713 205.527H470.916L466.765 197.839C466.246 196.847 465.773 196.194 465.344 195.901C464.78 195.517 464.149 195.315 463.449 195.315H462.773V205.527H454.968V205.549ZM462.773 190.58H466.066C466.427 190.58 467.104 190.468 468.119 190.242C468.637 190.13 469.066 189.882 469.382 189.453C469.698 189.025 469.878 188.552 469.878 187.988C469.878 187.176 469.63 186.545 469.111 186.117C468.592 185.666 467.622 185.463 466.201 185.463H462.795V190.58H462.773ZM479.126 180.391L488.645 205.549H497.081L506.42 180.391H498.525L492.954 198.493L487.292 180.391H479.126ZM509.262 180.391H517.067V205.549H509.262V180.391ZM539.398 195.269L546.21 197.321C545.759 199.237 545.037 200.815 544.044 202.1C543.052 203.385 541.834 204.354 540.368 205.008C538.901 205.662 537.052 205.977 534.796 205.977C532.067 205.977 529.811 205.572 528.097 204.783C526.36 203.994 524.871 202.596 523.608 200.59C522.345 198.583 521.713 196.036 521.713 192.902C521.713 188.732 522.819 185.531 525.029 183.299C527.24 181.067 530.375 179.94 534.435 179.94C537.616 179.94 540.097 180.571 541.924 181.856C543.751 183.141 545.082 185.102 545.962 187.763L539.104 189.295C538.856 188.529 538.608 187.965 538.338 187.605C537.909 187.019 537.368 186.568 536.736 186.23C536.104 185.914 535.405 185.756 534.616 185.756C532.856 185.756 531.503 186.455 530.578 187.875C529.879 188.935 529.518 190.58 529.518 192.835C529.518 195.63 529.947 197.546 530.781 198.583C531.638 199.62 532.811 200.139 534.345 200.139C535.834 200.139 536.962 199.733 537.729 198.876C538.495 198.087 539.059 196.87 539.398 195.269ZM549.977 180.391H570.819V185.756H557.781V189.746H569.872V194.886H557.781V199.846H571.203V205.549H549.977V180.391Z" fill="#9FA0A0"/>
</svg>
