<svg width="14" height="14" viewBox="0 0 14 14" fill="none" xmlns="http://www.w3.org/2000/svg">
<circle cx="7" cy="7" r="6.5" stroke="#F38E47"/>
<path d="M5.956 9.096C5.94 9.016 5.928 8.936 5.92 8.856C5.912 8.776 5.908 8.692 5.908 8.604C5.908 8.284 5.98 7.98 6.124 7.692C6.268 7.396 6.512 7.12 6.856 6.864L7.432 6.432C7.776 6.176 7.948 5.86 7.948 5.484C7.948 5.348 7.924 5.216 7.876 5.088C7.828 4.952 7.752 4.836 7.648 4.74C7.552 4.636 7.428 4.556 7.276 4.5C7.124 4.436 6.948 4.404 6.748 4.404C6.532 4.404 6.348 4.444 6.196 4.524C6.044 4.604 5.916 4.708 5.812 4.836C5.716 4.956 5.644 5.1 5.596 5.268C5.548 5.428 5.524 5.592 5.524 5.76C5.524 5.92 5.54 6.048 5.572 6.144L4.06 6.084C4.036 5.996 4.02 5.908 4.012 5.82C4.004 5.724 4 5.632 4 5.544C4 5.224 4.06 4.912 4.18 4.608C4.3 4.296 4.476 4.024 4.708 3.792C4.94 3.552 5.224 3.36 5.56 3.216C5.904 3.072 6.3 3 6.748 3C7.212 3 7.62 3.068 7.972 3.204C8.324 3.34 8.62 3.52 8.86 3.744C9.1 3.96 9.28 4.212 9.4 4.5C9.52 4.788 9.58 5.084 9.58 5.388C9.58 5.868 9.472 6.28 9.256 6.624C9.04 6.96 8.752 7.256 8.392 7.512L7.9 7.86C7.692 8.012 7.532 8.184 7.42 8.376C7.308 8.56 7.252 8.776 7.252 9.024V9.096H5.956ZM5.68 10.836C5.68 10.572 5.772 10.348 5.956 10.164C6.14 9.972 6.364 9.876 6.628 9.876C6.892 9.876 7.116 9.972 7.3 10.164C7.492 10.348 7.588 10.572 7.588 10.836C7.588 11.1 7.492 11.324 7.3 11.508C7.116 11.692 6.892 11.784 6.628 11.784C6.364 11.784 6.14 11.692 5.956 11.508C5.772 11.324 5.68 11.1 5.68 10.836Z" fill="#F38E47"/>
</svg>
