<svg width="2104" height="333" xmlns="http://www.w3.org/2000/svg" xmlns:xlink="http://www.w3.org/1999/xlink" xml:space="preserve" overflow="hidden"><defs><filter id="fx0" x="-10%" y="-10%" width="120%" height="120%" filterUnits="userSpaceOnUse" primitiveUnits="userSpaceOnUse"><feComponentTransfer color-interpolation-filters="sRGB"><feFuncR type="discrete" tableValues="0.929412 0.929412"/><feFuncG type="discrete" tableValues="0.490196 0.490196"/><feFuncB type="discrete" tableValues="0.192157 0.192157"/><feFuncA type="linear" slope="1" intercept="0"/></feComponentTransfer><feGaussianBlur stdDeviation="0 0"/></filter><filter id="fx1" x="-10%" y="-10%" width="120%" height="120%" filterUnits="userSpaceOnUse" primitiveUnits="userSpaceOnUse"><feComponentTransfer color-interpolation-filters="sRGB"><feFuncR type="discrete" tableValues="0.929412 0.929412"/><feFuncG type="discrete" tableValues="0.490196 0.490196"/><feFuncB type="discrete" tableValues="0.192157 0.192157"/><feFuncA type="linear" slope="1" intercept="0"/></feComponentTransfer><feGaussianBlur stdDeviation="0 0"/></filter><filter id="fx2" x="-10%" y="-10%" width="120%" height="120%" filterUnits="userSpaceOnUse" primitiveUnits="userSpaceOnUse"><feComponentTransfer color-interpolation-filters="sRGB"><feFuncR type="discrete" tableValues="0.929412 0.929412"/><feFuncG type="discrete" tableValues="0.490196 0.490196"/><feFuncB type="discrete" tableValues="0.192157 0.192157"/><feFuncA type="linear" slope="1" intercept="0"/></feComponentTransfer><feGaussianBlur stdDeviation="0 0"/></filter><clipPath id="clip3"><rect x="0" y="1" width="160" height="173"/></clipPath><clipPath id="clip4"><rect x="1" y="0" width="73" height="28"/></clipPath><clipPath id="clip5"><rect x="1" y="0" width="1717" height="227"/></clipPath></defs><g transform="translate(-1148 -1071)"><g clip-path="url(#clip3)" filter="url(#fx0)" transform="translate(1198 1163)"><g><path d="M1.77759 2.09206 32.4143 2.09206 70.6799 116.283C74.3127 127.182 77.5015 138.121 80.2463 149.1 83.5562 136.587 86.6643 125.85 89.5705 116.889L127.594 2.09206 158.231 2.09206 95.7463 172.713 64.3831 172.713Z" stroke="#ED7D31" stroke-width="2" stroke-linejoin="round" stroke-miterlimit="10" fill="#FFFFFF" fill-rule="evenodd"/></g></g><path d="M1192.14 1157.45 1222.78 1157.45 1261.04 1271.65C1264.68 1282.54 1267.86 1293.48 1270.61 1304.46 1273.92 1291.95 1277.03 1281.21 1279.93 1272.25L1317.96 1157.45 1348.59 1157.45 1286.11 1328.08 1254.75 1328.08Z" stroke="#ED7D31" stroke-width="2" stroke-linejoin="round" stroke-miterlimit="10" fill="#FFFFFF" fill-rule="evenodd"/><text fill="#000000" fill-opacity="0" font-family="Arial,Arial_MSFontService,sans-serif" font-size="170.621" x="1192.14" y="1306.75">V</text><g clip-path="url(#clip4)" filter="url(#fx1)" transform="translate(1382 1259)"><g><path d="M2.02637 1.75611 72.1396 1.75611 72.1396 26.217 2.02637 26.217Z" stroke="#ED7D31" stroke-width="2" stroke-linejoin="round" stroke-miterlimit="10" fill="#FFFFFF" fill-rule="evenodd"/></g></g><path d="M1376.39 1253.12 1446.5 1253.12 1446.5 1277.58 1376.39 1277.58Z" stroke="#ED7D31" stroke-width="2" stroke-linejoin="round" stroke-miterlimit="10" fill="#FFFFFF" fill-rule="evenodd"/><text fill="#000000" fill-opacity="0" font-family="Arial,Arial_MSFontService,sans-serif" font-size="24.4609" x="1376.39" y="1274.52">-</text><g clip-path="url(#clip5)" filter="url(#fx2)" transform="translate(1491 1158)"><g><path d="M1116.9 117.045 1103.7 117.53C1091.83 118.095 1083.3 120.194 1078.09 123.826 1072.88 127.459 1070.28 133.151 1070.28 140.901 1070.28 153.979 1076.5 160.518 1088.93 160.518 1097.57 160.518 1104.39 157.511 1109.39 151.496 1114.4 145.482 1116.9 137.752 1116.9 128.307ZM1458.97 71.635C1448.07 71.635 1439.79 75.3889 1434.14 82.8967 1428.49 90.4046 1425.67 101.303 1425.67 115.592 1425.67 129.881 1428.41 140.78 1433.9 148.287 1439.39 155.795 1447.58 159.549 1458.48 159.549 1479.23 159.549 1489.6 144.776 1489.6 115.229 1489.6 86.1663 1479.39 71.635 1458.97 71.635ZM691.608 71.635C668.197 71.635 656.491 86.2066 656.491 115.35 656.491 129.639 659.357 140.578 665.089 148.166 670.821 155.755 679.136 159.549 690.034 159.549 713.607 159.549 725.394 144.816 725.394 115.35 725.394 86.2066 714.132 71.635 691.608 71.635ZM218.608 71.635C195.197 71.635 183.491 86.2066 183.491 115.35 183.491 129.639 186.357 140.578 192.089 148.166 197.821 155.755 206.136 159.549 217.034 159.549 240.607 159.549 252.394 144.816 252.394 115.35 252.394 86.2066 241.132 71.635 218.608 71.635ZM1661.22 70.303C1653.07 70.303 1646.57 73.2092 1641.73 79.0217 1636.88 84.8342 1634.26 92.8668 1633.85 103.119L1687.86 103.119C1687.05 92.1402 1684.55 83.926 1680.35 78.4768 1676.16 73.0276 1669.78 70.303 1661.22 70.303ZM1662.19 51.0491C1679.87 51.0491 1693.39 56.8414 1702.76 68.426 1712.12 80.0107 1716.8 96.3785 1716.8 117.53L1716.8 120.92 1633.61 120.92C1634.02 133.595 1636.82 143.343 1642.03 150.164 1647.24 156.986 1654.36 160.397 1663.4 160.397 1669.54 160.397 1675.01 158.863 1679.81 155.795 1684.61 152.727 1688.95 147.561 1692.83 140.295L1714.74 150.83C1709.98 158.5 1705.22 164.312 1700.46 168.268 1695.69 172.224 1690.14 175.19 1683.81 177.168 1677.47 179.146 1669.94 180.135 1661.22 180.135 1643.06 180.135 1629.05 174.423 1619.2 163 1609.35 151.577 1604.43 135.532 1604.43 114.865 1604.43 94.0374 1609.6 78.1943 1619.93 67.3362 1630.26 56.4781 1644.35 51.0491 1662.19 51.0491ZM1466.96 51.0491C1483.67 51.0491 1496.47 56.5588 1505.35 67.5784 1514.23 78.5979 1518.67 94.4006 1518.67 114.987 1518.67 135.33 1513.92 151.274 1504.44 162.819 1494.95 174.363 1481.77 180.135 1464.9 180.135 1455.21 180.135 1447.26 178.278 1441.05 174.565 1434.83 170.851 1429.86 165.442 1426.15 158.338L1425.55 158.338C1425.71 161.567 1425.85 164.756 1425.97 167.905 1426.09 171.053 1426.15 174.242 1426.15 177.471L1426.15 225.424 1398.18 225.424 1398.18 81.2014C1398.18 72.8056 1397.86 63.6025 1397.21 53.592L1424.09 53.592C1425.14 61.9879 1425.67 69.0113 1425.67 74.6624L1426.15 74.6624C1433.9 58.9202 1447.5 51.0491 1466.96 51.0491ZM1246.14 51.0491C1265.6 51.0491 1277.87 59.8889 1282.96 77.5686L1283.8 77.5686C1288.16 68.4462 1293.47 61.7457 1299.73 57.4671 1305.98 53.1884 1314.08 51.0491 1324.01 51.0491 1337.33 51.0491 1347.3 55.0855 1353.92 63.1585 1360.54 71.2314 1363.85 83.8655 1363.85 101.061L1363.85 177.713 1335.87 177.713 1335.87 108.326C1335.87 95.7327 1334.04 86.691 1330.36 81.2014 1326.69 75.7119 1320.86 72.9671 1312.87 72.9671 1304.39 72.9671 1297.71 76.3779 1292.83 83.1995 1287.94 90.0211 1285.5 99.4059 1285.5 111.354L1285.5 177.713 1257.53 177.713 1257.53 108.326C1257.53 95.4905 1255.73 86.3883 1252.14 81.0198 1248.55 75.6513 1242.83 72.9671 1235 72.9671 1226.45 72.9671 1219.66 76.4384 1214.66 83.3811 1209.65 90.3238 1207.15 99.8902 1207.15 112.08L1207.15 177.713 1179.3 177.713 1179.3 82.1702C1179.3 72.5634 1178.94 63.0374 1178.21 53.592L1204.73 53.592C1205.62 65.7014 1206.06 73.6936 1206.06 77.5686L1206.55 77.5686C1211.23 68.0426 1216.64 61.2411 1222.77 57.1643 1228.91 53.0875 1236.7 51.0491 1246.14 51.0491ZM1096.68 51.0491C1113.23 51.0491 1125.36 54.9644 1133.07 62.7952 1140.78 70.6259 1144.63 82.7756 1144.63 99.2444L1144.63 177.713 1117.75 177.713 1116.78 158.096C1112.66 166.169 1107.7 171.86 1101.89 175.17 1096.07 178.48 1088.93 180.135 1080.45 180.135 1067.7 180.135 1057.95 176.825 1051.21 170.205 1044.47 163.586 1041.1 154.382 1041.1 142.596 1041.1 129.679 1045.7 119.79 1054.9 112.928 1064.1 106.066 1077.67 102.352 1095.59 101.787L1116.78 101.061 1116.78 97.1858C1116.78 87.579 1115.23 80.6161 1112.12 76.2971 1109.01 71.9781 1103.74 69.8186 1096.32 69.8186 1089.78 69.8186 1084.95 71.0497 1081.84 73.512 1078.74 75.9742 1076.62 79.7887 1075.49 84.9553L1048.6 80.717C1051.03 70.1415 1056.09 62.553 1063.8 57.9514 1071.51 53.3499 1082.47 51.0491 1096.68 51.0491ZM691.003 51.0491C711.75 51.0491 727.533 56.5588 738.351 67.5784 749.168 78.5979 754.577 94.5217 754.577 115.35 754.577 135.613 748.946 151.476 737.685 162.94 726.423 174.403 710.62 180.135 690.276 180.135 670.578 180.135 655.159 174.323 644.018 162.698 632.878 151.073 627.308 135.29 627.308 115.35 627.308 95.0868 632.898 79.3043 644.079 68.0022 655.26 56.7001 670.901 51.0491 691.003 51.0491ZM603.968 51.0491C607.762 51.0491 610.91 51.5738 613.413 52.6233L613.413 75.51C609.296 74.622 605.058 74.178 600.698 74.178 591.657 74.178 584.431 78.1539 579.022 86.1057 573.614 94.0575 570.909 104.774 570.909 118.256L570.909 177.713 543.058 177.713 543.058 84.2288C543.058 71.1507 542.775 60.9384 542.21 53.592L568.729 53.592C569.537 63.2795 569.94 72.6441 569.94 81.6858L570.425 81.6858C574.3 70.2223 578.78 62.2503 583.866 57.7698 588.952 53.2893 595.653 51.0491 603.968 51.0491ZM377.476 51.0491C391.28 51.0491 401.634 55.1259 408.536 63.2795 415.438 71.4332 418.89 84.0269 418.89 101.061L418.89 177.713 390.917 177.713 390.917 108.326C390.917 95.7327 388.959 86.691 385.044 81.2014 381.129 75.7119 374.933 72.9671 366.456 72.9671 357.334 72.9671 350.169 76.4788 344.962 83.5022 339.755 90.5256 337.151 100.052 337.151 112.08L337.151 177.713 309.3 177.713 309.3 82.1702C309.3 72.5634 308.936 63.0374 308.21 53.592L334.729 53.592C335.618 65.7014 336.061 73.6936 336.061 77.5686L336.546 77.5686C341.309 68.2848 346.839 61.5439 353.136 57.346 359.433 53.148 367.546 51.0491 377.476 51.0491ZM218.003 51.0491C238.75 51.0491 254.533 56.5588 265.351 67.5784 276.168 78.5979 281.577 94.5217 281.577 115.35 281.577 135.613 275.946 151.476 264.685 162.94 253.423 174.403 237.62 180.135 217.276 180.135 197.578 180.135 182.159 174.323 171.019 162.698 159.878 151.073 154.308 135.29 154.308 115.35 154.308 95.0868 159.898 79.3043 171.079 68.0022 182.26 56.7001 197.901 51.0491 218.003 51.0491ZM468.831 23.5608 487.358 23.5608 487.358 53.592 517.269 53.592 517.269 73.8147 487.358 73.8147 487.358 140.78C487.358 153.05 492.565 159.186 502.979 159.186 507.904 159.186 513.192 158.661 518.843 157.612L518.843 176.26C509.64 178.682 500.356 179.893 490.991 179.893 481.304 179.893 473.655 177.128 468.044 171.598 462.433 166.068 459.628 158.136 459.628 147.803L459.628 73.8147 441.343 73.8147 441.343 53.592 459.991 53.592ZM964.253 4.54909C980.399 4.54909 993.013 7.75807 1002.09 14.176 1011.18 20.594 1017.45 30.665 1020.92 44.3889L993.194 49.3538C989.561 33.7731 979.834 25.9827 964.011 25.9827 955.857 25.9827 949.58 27.9807 945.181 31.9768 940.781 35.9729 938.581 41.523 938.581 48.6272 938.581 53.5517 939.57 57.6083 941.548 60.7971 943.526 63.9859 946.492 66.7509 950.448 69.092 954.404 71.4332 962.033 74.3394 973.335 77.8108 986.575 81.928 996.02 85.5406 1001.67 88.6487 1007.32 91.7568 1011.8 95.2079 1015.11 99.0022 1018.42 102.796 1020.92 107.196 1022.62 112.201 1024.32 117.207 1025.16 123.019 1025.16 129.639 1025.16 145.946 1019.98 158.439 1009.6 167.117 999.229 175.796 984.233 180.135 964.616 180.135 947.34 180.135 933.757 176.381 923.868 168.873 913.979 161.365 907.541 150.023 904.554 134.846L931.921 130.123C935.877 148.61 947.259 157.854 966.069 157.854 986.575 157.854 996.827 149.014 996.827 131.334 996.827 126.248 995.818 122.091 993.8 118.862 991.782 115.632 988.996 112.928 985.444 110.748 981.892 108.569 977.714 106.732 972.911 105.239 968.108 103.745 962.961 102.191 957.472 100.576 944.232 96.7822 934.645 92.8264 928.712 88.7092 922.778 84.592 918.217 79.4254 915.028 73.2092 911.839 66.9931 910.245 59.2431 910.245 49.9592 910.245 35.6702 915.008 24.5296 924.534 16.5374 934.06 8.54518 947.3 4.54909 964.253 4.54909ZM74.417 4.54909C90.3206 4.54909 103.459 8.02043 113.833 14.9632 124.207 21.9059 132.017 32.885 137.265 47.9006L111.351 57.1038C108.606 47.5777 104.125 40.3525 97.9092 35.428 91.6931 30.5035 84.0642 28.0413 75.0225 28.0413 61.2985 28.0413 50.723 33.551 43.2959 44.5706 35.8688 55.5901 32.1553 71.2717 32.1553 91.6155 32.1553 111.798 35.9496 127.701 43.5381 139.326 51.1267 150.951 61.5407 156.764 74.7803 156.764 83.7412 156.764 91.4307 153.999 97.8487 148.469 104.267 142.939 109.009 135.048 112.077 124.795L138.112 134.967C126.81 165.079 105.659 180.135 74.6592 180.135 51.8936 180.135 34.1533 172.304 21.4385 156.643 8.72366 140.981 2.36624 119.306 2.36624 91.6155 2.36624 64.0868 8.62275 42.6936 21.1358 27.4358 33.6488 12.178 51.4092 4.54909 74.417 4.54909ZM1547.3 1.64284 1575.15 1.64284 1575.15 177.713 1547.3 177.713ZM783.3 1.64284 811.151 1.64284 811.151 177.713 783.3 177.713Z" stroke="#ED7D31" stroke-width="2" stroke-linejoin="round" stroke-miterlimit="10" fill="#FFFFFF" fill-rule="evenodd"/></g></g><path d="M2600.26 1267.41 2587.06 1267.89C2575.2 1268.46 2566.66 1270.56 2561.45 1274.19 2556.25 1277.82 2553.64 1283.51 2553.64 1291.26 2553.64 1304.34 2559.86 1310.88 2572.29 1310.88 2580.93 1310.88 2587.75 1307.87 2592.76 1301.86 2597.76 1295.84 2600.26 1288.12 2600.26 1278.67ZM2942.33 1222C2931.43 1222 2923.16 1225.75 2917.51 1233.26 2911.86 1240.77 2909.03 1251.67 2909.03 1265.95 2909.03 1280.24 2911.77 1291.14 2917.26 1298.65 2922.75 1306.16 2930.95 1309.91 2941.85 1309.91 2962.59 1309.91 2972.97 1295.14 2972.97 1265.59 2972.97 1236.53 2962.75 1222 2942.33 1222ZM2174.97 1222C2151.56 1222 2139.85 1236.57 2139.85 1265.71 2139.85 1280 2142.72 1290.94 2148.45 1298.53 2154.18 1306.12 2162.5 1309.91 2173.4 1309.91 2196.97 1309.91 2208.76 1295.18 2208.76 1265.71 2208.76 1236.57 2197.49 1222 2174.97 1222ZM1701.97 1222C1678.56 1222 1666.85 1236.57 1666.85 1265.71 1666.85 1280 1669.72 1290.94 1675.45 1298.53 1681.18 1306.12 1689.5 1309.91 1700.4 1309.91 1723.97 1309.91 1735.76 1295.18 1735.76 1265.71 1735.76 1236.57 1724.49 1222 1701.97 1222ZM3144.58 1220.67C3136.43 1220.67 3129.93 1223.57 3125.09 1229.38 3120.24 1235.2 3117.62 1243.23 3117.22 1253.48L3171.23 1253.48C3170.42 1242.5 3167.92 1234.29 3163.72 1228.84 3159.52 1223.39 3153.14 1220.67 3144.58 1220.67ZM3145.55 1201.41C3163.23 1201.41 3176.76 1207.2 3186.12 1218.79 3195.48 1230.37 3200.17 1246.74 3200.17 1267.89L3200.17 1271.28 3116.98 1271.28C3117.38 1283.96 3120.18 1293.71 3125.39 1300.53 3130.6 1307.35 3137.72 1310.76 3146.76 1310.76 3152.9 1310.76 3158.37 1309.23 3163.17 1306.16 3167.98 1303.09 3172.31 1297.92 3176.19 1290.66L3198.11 1301.19C3193.34 1308.86 3188.58 1314.68 3183.82 1318.63 3179.06 1322.59 3173.51 1325.55 3167.17 1327.53 3160.83 1329.51 3153.3 1330.5 3144.58 1330.5 3126.42 1330.5 3112.41 1324.79 3102.56 1313.36 3092.72 1301.94 3087.79 1285.9 3087.79 1265.23 3087.79 1244.4 3092.96 1228.56 3103.29 1217.7 3113.62 1206.84 3127.71 1201.41 3145.55 1201.41ZM2950.32 1201.41C2967.03 1201.41 2979.83 1206.92 2988.71 1217.94 2997.59 1228.96 3002.03 1244.76 3002.03 1265.35 3002.03 1285.69 2997.29 1301.64 2987.8 1313.18 2978.32 1324.73 2965.14 1330.5 2948.26 1330.5 2938.58 1330.5 2930.62 1328.64 2924.41 1324.93 2918.19 1321.21 2913.23 1315.81 2909.51 1308.7L2908.91 1308.7C2909.07 1311.93 2909.21 1315.12 2909.33 1318.27 2909.45 1321.42 2909.51 1324.6 2909.51 1327.83L2909.51 1375.79 2881.54 1375.79 2881.54 1231.56C2881.54 1223.17 2881.22 1213.97 2880.57 1203.95L2907.46 1203.95C2908.5 1212.35 2909.03 1219.37 2909.03 1225.03L2909.51 1225.03C2917.26 1209.28 2930.87 1201.41 2950.32 1201.41ZM2729.51 1201.41C2748.96 1201.41 2761.23 1210.25 2766.32 1227.93L2767.17 1227.93C2771.53 1218.81 2776.83 1212.11 2783.09 1207.83 2789.35 1203.55 2797.44 1201.41 2807.37 1201.41 2820.69 1201.41 2830.66 1205.45 2837.28 1213.52 2843.9 1221.59 2847.21 1234.23 2847.21 1251.42L2847.21 1328.08 2819.24 1328.08 2819.24 1258.69C2819.24 1246.1 2817.4 1237.05 2813.73 1231.56 2810.05 1226.07 2804.22 1223.33 2796.23 1223.33 2787.75 1223.33 2781.07 1226.74 2776.19 1233.56 2771.3 1240.38 2768.86 1249.77 2768.86 1261.72L2768.86 1328.08 2740.89 1328.08 2740.89 1258.69C2740.89 1245.85 2739.09 1236.75 2735.5 1231.38 2731.91 1226.01 2726.2 1223.33 2718.37 1223.33 2709.81 1223.33 2703.03 1226.8 2698.02 1233.74 2693.02 1240.69 2690.51 1250.25 2690.51 1262.44L2690.51 1328.08 2662.66 1328.08 2662.66 1232.53C2662.66 1222.93 2662.3 1213.4 2661.57 1203.95L2688.09 1203.95C2688.98 1216.06 2689.42 1224.06 2689.42 1227.93L2689.91 1227.93C2694.59 1218.41 2700 1211.6 2706.14 1207.53 2712.27 1203.45 2720.06 1201.41 2729.51 1201.41ZM2580.04 1201.41C2596.59 1201.41 2608.72 1205.33 2616.43 1213.16 2624.14 1220.99 2627.99 1233.14 2627.99 1249.61L2627.99 1328.08 2601.11 1328.08 2600.14 1308.46C2596.03 1316.53 2591.06 1322.22 2585.25 1325.53 2579.44 1328.84 2572.29 1330.5 2563.81 1330.5 2551.06 1330.5 2541.31 1327.19 2534.57 1320.57 2527.83 1313.95 2524.46 1304.75 2524.46 1292.96 2524.46 1280.04 2529.06 1270.15 2538.26 1263.29 2547.47 1256.43 2561.03 1252.72 2578.95 1252.15L2600.14 1251.42 2600.14 1247.55C2600.14 1237.94 2598.59 1230.98 2595.48 1226.66 2592.37 1222.34 2587.11 1220.18 2579.68 1220.18 2573.14 1220.18 2568.32 1221.41 2565.21 1223.87 2562.1 1226.34 2559.98 1230.15 2558.85 1235.32L2531.97 1231.08C2534.39 1220.5 2539.45 1212.92 2547.16 1208.31 2554.87 1203.71 2565.83 1201.41 2580.04 1201.41ZM2174.37 1201.41C2195.11 1201.41 2210.9 1206.92 2221.71 1217.94 2232.53 1228.96 2237.94 1244.88 2237.94 1265.71 2237.94 1285.98 2232.31 1301.84 2221.05 1313.3 2209.79 1324.77 2193.98 1330.5 2173.64 1330.5 2153.94 1330.5 2138.52 1324.69 2127.38 1313.06 2116.24 1301.44 2110.67 1285.65 2110.67 1265.71 2110.67 1245.45 2116.26 1229.67 2127.44 1218.37 2138.62 1207.06 2154.26 1201.41 2174.37 1201.41ZM2087.33 1201.41C2091.12 1201.41 2094.27 1201.94 2096.78 1202.99L2096.78 1225.87C2092.66 1224.98 2088.42 1224.54 2084.06 1224.54 2075.02 1224.54 2067.79 1228.52 2062.39 1236.47 2056.98 1244.42 2054.27 1255.14 2054.27 1268.62L2054.27 1328.08 2026.42 1328.08 2026.42 1234.59C2026.42 1221.51 2026.14 1211.3 2025.57 1203.95L2052.09 1203.95C2052.9 1213.64 2053.3 1223.01 2053.3 1232.05L2053.79 1232.05C2057.66 1220.59 2062.14 1212.61 2067.23 1208.13 2072.31 1203.65 2079.02 1201.41 2087.33 1201.41ZM1860.84 1201.41C1874.64 1201.41 1885 1205.49 1891.9 1213.64 1898.8 1221.8 1902.25 1234.39 1902.25 1251.42L1902.25 1328.08 1874.28 1328.08 1874.28 1258.69C1874.28 1246.1 1872.32 1237.05 1868.41 1231.56 1864.49 1226.07 1858.3 1223.33 1849.82 1223.33 1840.7 1223.33 1833.53 1226.84 1828.32 1233.87 1823.12 1240.89 1820.51 1250.41 1820.51 1262.44L1820.51 1328.08 1792.66 1328.08 1792.66 1232.53C1792.66 1222.93 1792.3 1213.4 1791.57 1203.95L1818.09 1203.95C1818.98 1216.06 1819.42 1224.06 1819.42 1227.93L1819.91 1227.93C1824.67 1218.65 1830.2 1211.91 1836.5 1207.71 1842.8 1203.51 1850.91 1201.41 1860.84 1201.41ZM1701.37 1201.41C1722.11 1201.41 1737.9 1206.92 1748.71 1217.94 1759.53 1228.96 1764.94 1244.88 1764.94 1265.71 1764.94 1285.98 1759.31 1301.84 1748.05 1313.3 1736.79 1324.77 1720.98 1330.5 1700.64 1330.5 1680.94 1330.5 1665.52 1324.69 1654.38 1313.06 1643.24 1301.44 1637.67 1285.65 1637.67 1265.71 1637.67 1245.45 1643.26 1229.67 1654.44 1218.37 1665.62 1207.06 1681.26 1201.41 1701.37 1201.41ZM1952.19 1173.92 1970.72 1173.92 1970.72 1203.95 2000.63 1203.95 2000.63 1224.18 1970.72 1224.18 1970.72 1291.14C1970.72 1303.41 1975.93 1309.55 1986.34 1309.55 1991.27 1309.55 1996.55 1309.02 2002.21 1307.97L2002.21 1326.62C1993 1329.04 1983.72 1330.26 1974.35 1330.26 1964.67 1330.26 1957.02 1327.49 1951.41 1321.96 1945.8 1316.43 1942.99 1308.5 1942.99 1298.17L1942.99 1224.18 1924.71 1224.18 1924.71 1203.95 1943.35 1203.95ZM2447.62 1154.91C2463.76 1154.91 2476.38 1158.12 2485.46 1164.54 2494.54 1170.96 2500.82 1181.03 2504.29 1194.75L2476.56 1199.72C2472.92 1184.14 2463.2 1176.35 2447.37 1176.35 2439.22 1176.35 2432.94 1178.34 2428.54 1182.34 2424.14 1186.34 2421.94 1191.89 2421.94 1198.99 2421.94 1203.91 2422.93 1207.97 2424.91 1211.16 2426.89 1214.35 2429.86 1217.11 2433.81 1219.45 2437.77 1221.8 2445.4 1224.7 2456.7 1228.17 2469.94 1232.29 2479.38 1235.9 2485.03 1239.01 2490.68 1242.12 2495.17 1245.57 2498.48 1249.37 2501.79 1253.16 2504.29 1257.56 2505.98 1262.56 2507.68 1267.57 2508.53 1273.38 2508.53 1280 2508.53 1296.31 2503.34 1308.8 2492.97 1317.48 2482.59 1326.16 2467.6 1330.5 2447.98 1330.5 2430.7 1330.5 2417.12 1326.74 2407.23 1319.24 2397.34 1311.73 2390.9 1300.39 2387.92 1285.21L2415.28 1280.49C2419.24 1298.97 2430.62 1308.22 2449.43 1308.22 2469.94 1308.22 2480.19 1299.38 2480.19 1281.7 2480.19 1276.61 2479.18 1272.45 2477.16 1269.22 2475.14 1266 2472.36 1263.29 2468.81 1261.11 2465.26 1258.93 2461.08 1257.09 2456.27 1255.6 2451.47 1254.11 2446.32 1252.55 2440.83 1250.94 2427.59 1247.15 2418.01 1243.19 2412.07 1239.07 2406.14 1234.95 2401.58 1229.79 2398.39 1223.57 2395.2 1217.36 2393.61 1209.61 2393.61 1200.32 2393.61 1186.03 2398.37 1174.89 2407.9 1166.9 2417.42 1158.91 2430.66 1154.91 2447.62 1154.91ZM1557.78 1154.91C1573.68 1154.91 1586.82 1158.38 1597.2 1165.33 1607.57 1172.27 1615.38 1183.25 1620.63 1198.26L1594.71 1207.47C1591.97 1197.94 1587.49 1190.72 1581.27 1185.79 1575.06 1180.87 1567.43 1178.4 1558.39 1178.4 1544.66 1178.4 1534.09 1183.91 1526.66 1194.93 1519.23 1205.95 1515.52 1221.63 1515.52 1241.98 1515.52 1262.16 1519.31 1278.06 1526.9 1289.69 1534.49 1301.31 1544.9 1307.13 1558.14 1307.13 1567.1 1307.13 1574.79 1304.36 1581.21 1298.83 1587.63 1293.3 1592.37 1285.41 1595.44 1275.16L1621.48 1285.33C1610.17 1315.44 1589.02 1330.5 1558.02 1330.5 1535.26 1330.5 1517.52 1322.67 1504.8 1307.01 1492.09 1291.34 1485.73 1269.67 1485.73 1241.98 1485.73 1214.45 1491.99 1193.06 1504.5 1177.8 1517.01 1162.54 1534.77 1154.91 1557.78 1154.91ZM3030.66 1152.01 3058.51 1152.01 3058.51 1328.08 3030.66 1328.08ZM2266.66 1152.01 2294.51 1152.01 2294.51 1328.08 2266.66 1328.08Z" stroke="#ED7D31" stroke-width="2" stroke-linejoin="round" stroke-miterlimit="10" fill="#FFFFFF" fill-rule="evenodd"/><text fill="#000000" fill-opacity="0" font-family="Arial,Arial_MSFontService,sans-serif" font-size="223.781" x="1485.73" y="1347.81">Control Sample</text></g></svg>